<?xml version="1.0" encoding="UTF-8"?>
<svg xmlns="http://www.w3.org/2000/svg" xmlns:xlink="http://www.w3.org/1999/xlink" id="Layer_1" height="512" viewBox="0 0 512 512" width="512" data-name="Layer 1">
  <linearGradient id="linear-gradient" gradientUnits="userSpaceOnUse" x1="31.205" x2="480.795" y1="256" y2="256">
    <stop offset=".073" stop-color="#1976d2"></stop>
    <stop offset="1" stop-color="#689ff2"></stop>
  </linearGradient>
  <path d="m473.5 91.225h-96.5a52.13 52.13 0 0 0 -22.7-5.171h-4.628a61.308 61.308 0 0 0 -53.431-31.533c-2.05 0-4.1.1-6.142.306a78.027 78.027 0 0 0 -145.069 32.787 51.811 51.811 0 0 0 -9.945 3.611h-96.585a7.3 7.3 0 0 0 -7.292 7.292v319.331a7.3 7.3 0 0 0 7.292 7.291h173.806v24.188h-57.322a23.218 23.218 0 1 0 0 46.435h202.033a23.218 23.218 0 0 0 0-46.435h-57.323v-24.188h71.519a44.871 44.871 0 0 0 89.715 0h12.572a7.3 7.3 0 0 0 7.292-7.291v-319.331a7.3 7.3 0 0 0 -7.292-7.292zm-321.448 8a6.38 6.38 0 0 0 5.471-6.2 65.261 65.261 0 0 1 123.4-28.376 6.382 6.382 0 0 0 6.8 3.383 48.347 48.347 0 0 1 52.255 27.107 6.38 6.38 0 0 0 5.781 3.679h8.541a39.43 39.43 0 0 1 17.943 4.306 6.043 6.043 0 0 0 .631.323 39.675 39.675 0 0 1 -18.574 74.738h-8.684v-22.717-.043c-.032-7.654-5.048-18.517-28.658-26.958-16.424-5.87-38.072-9.1-60.959-9.1s-44.535 3.234-60.959 9.1c-23.61 8.441-28.626 19.3-28.658 26.958v.043 22.717h-8.682a39.682 39.682 0 0 1 -5.642-78.962zm103.948 79.575c-46.851 0-76.769-13.805-76.852-23.334.073-9.53 29.994-23.339 76.852-23.339s76.769 13.805 76.851 23.334c-.073 9.529-29.993 23.339-76.851 23.339zm-76.856 96.045a73.711 73.711 0 0 0 15.85 7.609c16.393 5.86 38.059 9.088 61.006 9.088s44.612-3.228 61.005-9.088a73.688 73.688 0 0 0 15.85-7.609v30.527c0 9.531-29.939 23.375-76.855 23.375s-76.856-13.844-76.856-23.375zm76.856 3.933c-46.916 0-76.856-13.844-76.856-23.374v-30.528a73.711 73.711 0 0 0 15.85 7.609c16.393 5.861 38.059 9.088 61.006 9.088s44.612-3.227 61.005-9.088a73.688 73.688 0 0 0 15.85-7.609v30.524c0 9.534-29.939 23.378-76.855 23.378zm0-49.968c-46.916 0-76.856-13.844-76.856-23.374v-30.494a73.666 73.666 0 0 0 15.85 7.608c16.393 5.861 38.059 9.088 61.006 9.088h.111c22.906-.01 44.528-3.235 60.894-9.087a73.643 73.643 0 0 0 15.85-7.608v30.494c0 9.529-29.939 23.373-76.855 23.373zm-137.66-124.822a52.336 52.336 0 0 0 39.357 86.96h8.684v116.286a6.344 6.344 0 0 0 .593 2.674c1.872 7.079 8.728 15.617 28.02 22.513 16.393 5.861 38.059 9.088 61.006 9.088s44.612-3.227 61.005-9.088c23.649-8.454 28.613-19.376 28.613-27.05v-114.423h8.682a52.405 52.405 0 0 0 39.441-86.96h74.289v260.655h-14.1a44.954 44.954 0 0 0 -31.482-20.364v-16.245a26.488 26.488 0 0 0 -26.459-26.458h-20.073a6.382 6.382 0 1 0 0 12.763h20.077a13.711 13.711 0 0 1 13.7 13.695v16.245a44.95 44.95 0 0 0 -31.481 20.364h-334.244v-260.655zm-74.372 273.418h328.659a44.786 44.786 0 0 0 -1.442 11.3v23.673h-327.217zm323.5 95.139a10.465 10.465 0 0 1 -10.451 10.455h-202.033a10.455 10.455 0 1 1 0-20.909h202.033a10.466 10.466 0 0 1 10.454 10.454zm-80.539-23.218h-61.861v-24.188h61.864zm161.262-25.3a32.123 32.123 0 1 1 -64.246 0v-35.327a32.159 32.159 0 0 1 32.122-32.122 32.159 32.159 0 0 1 32.127 32.122zm12.763-11.648v-23.679a44.832 44.832 0 0 0 -1.442-11.3h8.517v34.97zm-382.318-16.324a6.382 6.382 0 0 1 -6.382 6.382h-1.454a6.382 6.382 0 1 1 0-12.763h1.45a6.381 6.381 0 0 1 6.386 6.381zm343.816-15.6v19.863a6.382 6.382 0 0 1 -12.763 0v-19.866a6.382 6.382 0 1 1 12.763 0z" fill="url(#linear-gradient)"></path>
</svg>
