<?xml version="1.0" encoding="UTF-8"?>
<svg xmlns="http://www.w3.org/2000/svg" xmlns:xlink="http://www.w3.org/1999/xlink" id="Layer_1" height="512" viewBox="0 0 512 512" width="512" data-name="Layer 1">
  <linearGradient id="linear-gradient" gradientUnits="userSpaceOnUse" x1="16.249" x2="495.751" y1="256" y2="256">
    <stop offset="0" stop-color="#0036d0"></stop>
    <stop offset="1" stop-color="#2ec1ff"></stop>
  </linearGradient>
  <path d="m307.815 84.29h-284.59a6.984 6.984 0 0 0 -6.976 6.977v208.913a6.984 6.984 0 0 0 6.976 6.976h111.5v11.411h-35.292a17.4 17.4 0 0 0 0 34.792h132.174a17.4 17.4 0 0 0 0-34.792h-35.295v-11.411h111.5a6.984 6.984 0 0 0 6.976-6.976v-208.913a6.984 6.984 0 0 0 -6.973-6.977zm-5.786 12.763v166.113h-273.018v-166.113zm-65.789 238.91a4.639 4.639 0 0 1 -4.633 4.634h-132.174a4.634 4.634 0 0 1 0-9.267h132.174a4.638 4.638 0 0 1 4.633 4.633zm-52.691-17.4h-36.059v-11.407h36.059zm-154.538-24.169v-18.466h273.018v18.466zm448.623-173.566h-130.507a18.137 18.137 0 0 0 -18.117 18.117v270.648a18.138 18.138 0 0 0 18.117 18.117h130.507a18.138 18.138 0 0 0 18.117-18.117v-270.648a18.137 18.137 0 0 0 -18.117-18.117zm5.355 288.765a5.361 5.361 0 0 1 -5.355 5.354h-130.507a5.361 5.361 0 0 1 -5.355-5.354v-270.648a5.361 5.361 0 0 1 5.355-5.355h130.507a5.361 5.361 0 0 1 5.355 5.355zm-35.645-58.47h-69.928a6.381 6.381 0 0 0 -6.381 6.381v22.844a6.381 6.381 0 0 0 6.381 6.381h69.928a6.382 6.382 0 0 0 6.382-6.381v-22.848a6.382 6.382 0 0 0 -6.382-6.377zm-6.381 22.844h-57.163v-10.081h57.166zm3.047-72.712a31.63 31.63 0 1 0 -31.63 31.631 31.666 31.666 0 0 0 31.63-31.631zm-50.5 0a18.868 18.868 0 1 1 18.868 18.868 18.889 18.889 0 0 1 -18.866-18.868zm60.214-103.116a6.382 6.382 0 0 1 -6.382 6.381h-69.926a6.381 6.381 0 1 1 0-12.762h69.928a6.382 6.382 0 0 1 6.382 6.381zm0-22.844a6.382 6.382 0 0 1 -6.382 6.381h-69.926a6.381 6.381 0 1 1 0-12.762h69.928a6.382 6.382 0 0 1 6.382 6.386zm-164.919 198.246a6.382 6.382 0 0 0 -5.847-3.827h-234.876a6.381 6.381 0 0 0 -5.847 3.827l-18.252 41.773a6.381 6.381 0 0 0 5.848 8.936h271.378a6.38 6.38 0 0 0 5.847-8.936zm-249.222 37.947 12.675-29.011h226.524l12.675 29.011z" fill="url(#linear-gradient)"></path>
</svg>
