<?xml version="1.0" encoding="UTF-8"?>
<svg xmlns="http://www.w3.org/2000/svg" xmlns:xlink="http://www.w3.org/1999/xlink" id="Layer_1" height="512" viewBox="0 0 512 512" width="512" data-name="Layer 1">
  <linearGradient id="linear-gradient" gradientUnits="userSpaceOnUse" x1="126.701" x2="381.91" y1="532.751" y2="90.715">
    <stop offset="0" stop-color="#0036d0"></stop>
    <stop offset="1" stop-color="#2ec1ff"></stop>
  </linearGradient>
  <path d="m163.008 95.381h21.243a6.387 6.387 0 0 0 6.387-6.388v-21.243a6.387 6.387 0 0 0 -6.387-6.388h-21.243a6.388 6.388 0 0 0 -6.388 6.388v21.243a6.388 6.388 0 0 0 6.388 6.388zm6.392-21.243h8.468v8.467h-8.468zm45.857 21.243h21.243a6.388 6.388 0 0 0 6.388-6.388v-21.243a6.388 6.388 0 0 0 -6.388-6.388h-21.248a6.388 6.388 0 0 0 -6.388 6.388v21.243a6.388 6.388 0 0 0 6.388 6.388zm6.388-21.243h8.467v8.467h-8.472zm-58.632 73.811h21.243a6.387 6.387 0 0 0 6.387-6.388v-21.242a6.387 6.387 0 0 0 -6.387-6.388h-21.248a6.387 6.387 0 0 0 -6.388 6.388v21.242a6.387 6.387 0 0 0 6.388 6.388zm6.387-21.243h8.468v8.468h-8.468zm45.857 21.243h21.243a6.387 6.387 0 0 0 6.388-6.388v-21.242a6.387 6.387 0 0 0 -6.388-6.388h-21.248a6.387 6.387 0 0 0 -6.388 6.388v21.242a6.387 6.387 0 0 0 6.388 6.388zm6.388-21.243h8.467v8.468h-8.472zm-58.632 73.811h21.243a6.387 6.387 0 0 0 6.387-6.388v-21.242a6.387 6.387 0 0 0 -6.387-6.388h-21.248a6.388 6.388 0 0 0 -6.388 6.388v21.242a6.387 6.387 0 0 0 6.388 6.388zm6.387-21.242h8.468v8.467h-8.468zm45.857 21.242h21.243a6.387 6.387 0 0 0 6.388-6.388v-21.242a6.388 6.388 0 0 0 -6.388-6.387h-21.248a6.388 6.388 0 0 0 -6.388 6.388v21.242a6.387 6.387 0 0 0 6.388 6.387zm6.388-21.242h8.467v8.467h-8.472zm-58.632 73.811h21.243a6.387 6.387 0 0 0 6.387-6.388v-21.243a6.387 6.387 0 0 0 -6.387-6.388h-21.248a6.388 6.388 0 0 0 -6.388 6.388v21.245a6.388 6.388 0 0 0 6.388 6.386zm6.387-21.243h8.468v8.467h-8.468zm45.857 21.243h21.243a6.388 6.388 0 0 0 6.388-6.388v-21.243a6.388 6.388 0 0 0 -6.388-6.388h-21.248a6.388 6.388 0 0 0 -6.388 6.388v21.245a6.388 6.388 0 0 0 6.388 6.386zm6.388-21.243h8.467v8.467h-8.472zm-58.632 73.811h21.243a6.387 6.387 0 0 0 6.387-6.388v-21.243a6.386 6.386 0 0 0 -6.387-6.387h-21.248a6.387 6.387 0 0 0 -6.388 6.387v21.243a6.388 6.388 0 0 0 6.388 6.388zm6.387-21.243h8.468v8.467h-8.468zm310.842-17.817h-35.542v-12.258a40.952 40.952 0 0 0 -40.906-40.907h-27.367v-114.267a6.388 6.388 0 0 0 -6.388-6.388h-93.615v-59.274a6.388 6.388 0 0 0 -6.388-6.388h-140.57a6.388 6.388 0 0 0 -6.388 6.388v97.435l-102.792 35.836a6.386 6.386 0 0 0 -4.286 6.029v292.349a6.388 6.388 0 0 0 6.388 6.388h189.9a25.158 25.158 0 0 0 22.193 13.349h224.852a25.166 25.166 0 0 0 25.137-25.137v-89.624c6.31-3.885 11.529-9.054 11.529-15.94v-72.794c.001-8.158-7.071-14.797-15.762-14.797zm2.986 14.8v72.794c0 .093-1.549 9.646-56.967 21.741-30.278 6.609-64.124 11.2-78.466 12.781-11.225-1.25-44.916-5.718-77.341-12.694-57.066-12.279-59.848-21.808-59.863-21.828v-72.797c0-.954 1.277-2.021 2.987-2.021h266.659c1.709 0 2.986 1.067 2.986 2.021zm-273.888 177.367h-28.806v-65.844h28.806zm194.45-210.4a5.979 5.979 0 0 1 5.971 5.972v12.258h-33.334v-18.23zm-40.139 18.23h-84.161v-12.255a5.979 5.979 0 0 1 5.972-5.972h78.189zm68.27-12.258v12.258h-9.384v-12.255a18.769 18.769 0 0 0 -18.747-18.748h-118.328a18.768 18.768 0 0 0 -18.747 18.748v12.258h-9.384v-12.258a28.163 28.163 0 0 1 28.131-28.136h118.328a28.164 28.164 0 0 1 28.131 28.136zm-68.27-148.787v107.88h-78.189a40.865 40.865 0 0 0 -9.038 1.018v-108.9zm-100-65.659v179.869a40.906 40.906 0 0 0 -19.093 34.58v12.258h-30.985c-8.692 0-15.763 6.639-15.763 14.8v72.794c0 6.667 5.2 11.716 11.53 15.535v10.421h-35.194a6.388 6.388 0 0 0 -6.388 6.388v72.232h-31.9v-418.874zm-140.573 104.579v314.3h-94.3v-281.425zm336.255 327.644h-224.856a12.375 12.375 0 0 1 -12.361-12.361v-83.988c10.7 4.167 25.342 8.3 43.582 12.294 34.176 7.481 70.348 12.23 81.4 13.428a6.256 6.256 0 0 0 1.377 0c14.157-1.535 49.2-6.243 80.5-13.075 17.833-3.892 32.184-7.971 42.714-12.132v83.473a12.375 12.375 0 0 1 -12.356 12.361zm-112.428-131.536c-11.893 0-21.567 8.971-21.567 20s9.674 20 21.567 20 21.567-8.971 21.567-20-9.672-20-21.567-20zm0 27.222c-4.766 0-8.792-3.308-8.792-7.223s4.026-7.224 8.792-7.224 8.792 3.308 8.792 7.224-4.027 7.227-8.792 7.227z" fill="url(#linear-gradient)"></path>
</svg>
