<?xml version="1.0" encoding="UTF-8"?>
<svg xmlns="http://www.w3.org/2000/svg" xmlns:xlink="http://www.w3.org/1999/xlink" id="Layer_1" height="512" viewBox="0 0 512 512" width="512" data-name="Layer 1">
  <linearGradient id="linear-gradient" gradientUnits="userSpaceOnUse" x1="165.455" x2="388.296" y1="485.85" y2="99.877">
    <stop offset="0" stop-color="#0036d0"></stop>
    <stop offset="1" stop-color="#2ec1ff"></stop>
  </linearGradient>
  <path d="m244.779 243.982c12.575 0 22.805-9.447 22.805-21.06s-10.23-21.059-22.805-21.059-22.805 9.447-22.805 21.059 10.226 21.06 22.805 21.06zm0-30.286c6.05 0 10.972 4.139 10.972 9.226s-4.922 9.228-10.972 9.228-10.972-4.14-10.972-9.228 4.922-9.222 10.972-9.222zm-114.135 89.234a51.735 51.735 0 1 0 51.736 51.735 51.794 51.794 0 0 0 -51.736-51.735zm0 91.638a39.9 39.9 0 1 1 39.9-39.9 39.947 39.947 0 0 1 -39.9 39.9zm341.725-83.912h-38.381a5.916 5.916 0 0 0 -5.916 5.916v128.582a5.916 5.916 0 0 0 5.916 5.916h38.381a5.916 5.916 0 0 0 5.916-5.916v-128.582a5.916 5.916 0 0 0 -5.916-5.916zm-5.917 128.581h-26.552v-116.748h26.548zm-167.539-56.368h-38.381a5.916 5.916 0 0 0 -5.916 5.916v56.369a5.916 5.916 0 0 0 5.916 5.916h38.381a5.916 5.916 0 0 0 5.916-5.916v-56.369a5.916 5.916 0 0 0 -5.916-5.916zm-5.913 56.368h-26.551v-44.537h26.551zm121.55-102.085h-18.209a26.471 26.471 0 0 0 .3-3.888v-13.93l55-42.9 15.372 9.584a5.916 5.916 0 0 0 9.014-5.633l-5.582-53.676a5.916 5.916 0 0 0 -7.463-5.09l-49.8 13.784a5.916 5.916 0 0 0 -2.646 9.844l8.812 8.988-22.708 21.242v-42.592c6.983-4.18 12.828-9.73 12.828-17.069v-80.989c0-8.421-7.333-15.272-16.346-15.272h-40.733v-14.829a44.372 44.372 0 0 0 -44.321-44.326h-131.649a44.372 44.372 0 0 0 -44.319 44.326v14.829h-35.663c-9.013 0-16.347 6.851-16.347 15.272v80.989c0 4.748 2.169 10.324 12.828 16.545v49.751q-1.053.549-2.091 1.129l-2.815-2.814a14.31 14.31 0 0 0 -20.207 0l-11.4 11.4a14.306 14.306 0 0 0 0 20.208l2.815 2.815a80.952 80.952 0 0 0 -7.239 17.469h-3.981a14.3 14.3 0 0 0 -14.289 14.288v16.12a14.306 14.306 0 0 0 14.289 14.288h3.978a80.988 80.988 0 0 0 7.238 17.468l-2.811 2.817a14.306 14.306 0 0 0 0 20.207l11.4 11.4a14.313 14.313 0 0 0 20.208 0l2.815-2.814a80.991 80.991 0 0 0 17.468 7.238v3.978a14.306 14.306 0 0 0 14.289 14.29h16.115a14.306 14.306 0 0 0 14.289-14.29v-3.978a80.916 80.916 0 0 0 17.469-7.238l2.815 2.815a14.313 14.313 0 0 0 20.208 0l11.4-11.4a14.309 14.309 0 0 0 0-20.209l-2.815-2.814a81.029 81.029 0 0 0 7.238-17.468h3.978a14.306 14.306 0 0 0 14.289-14.29v-2.687h84.86v85.114a5.917 5.917 0 0 0 5.917 5.916h38.38a5.917 5.917 0 0 0 5.917-5.916v-85.114h7.216c.13 0 .259-.014.389-.015v85.129a5.917 5.917 0 0 0 5.917 5.916h38.38a5.916 5.916 0 0 0 5.916-5.916v-102.086a5.916 5.916 0 0 0 -5.913-5.916zm17.489-86.872-6.027-6.148 33.385-9.241 3.608 34.688-8.614-5.37a5.917 5.917 0 0 0 -6.769.355l-58.022 45.259-55.4-18.653a5.921 5.921 0 0 0 -4.581.339l-30.759 15.725 27.36-29.16 62.98 16.754c.033.009.066.011.1.019.17.043.344.077.519.1.065.01.13.021.194.029q.287.034.581.04c.038 0 .076.006.114.006h.014a5.887 5.887 0 0 0 .668-.041c.057-.006.113-.017.169-.025.175-.025.348-.056.518-.1.062-.015.123-.031.185-.048.172-.046.34-.1.506-.161.049-.019.1-.035.148-.055a5.851 5.851 0 0 0 1.2-.652c.051-.036.1-.075.15-.112.138-.1.271-.213.4-.329.03-.027.064-.049.094-.077l37.091-34.688a5.918 5.918 0 0 0 .183-8.463zm-288.109-145.554a32.526 32.526 0 0 1 32.489-32.489h131.649a32.526 32.526 0 0 1 32.489 32.489v14.829h-12.822v-14.83a19.69 19.69 0 0 0 -19.667-19.667h-131.649a19.689 19.689 0 0 0 -19.667 19.667v14.83h-12.822zm24.655 14.829v-14.83a7.843 7.843 0 0 1 7.834-7.834h131.649a7.843 7.843 0 0 1 7.834 7.834v14.83zm-76.662 15.272c0-1.832 2.109-3.44 4.514-3.44h296.685c2.4 0 4.513 1.608 4.513 3.44v80.989c0 .462-.731 11.474-64.317 25.352-33.822 7.381-71.646 12.5-87.554 14.254-12.112-1.347-51.944-6.633-88.549-14.645-64.545-14.129-65.292-24.854-65.292-24.961zm123.818 227.9a2.489 2.489 0 0 1 -2.456 2.457h-8.585a5.917 5.917 0 0 0 -5.777 4.64 69.319 69.319 0 0 1 -9.283 22.4 5.919 5.919 0 0 0 .805 7.367l6.073 6.073a2.491 2.491 0 0 1 0 3.475l-11.4 11.4a2.487 2.487 0 0 1 -3.474 0l-6.074-6.074a5.916 5.916 0 0 0 -7.366-.8 69.347 69.347 0 0 1 -22.4 9.283 5.915 5.915 0 0 0 -4.64 5.776v8.587a2.49 2.49 0 0 1 -2.457 2.457h-16.12a2.489 2.489 0 0 1 -2.456-2.457v-8.587a5.915 5.915 0 0 0 -4.641-5.776 69.367 69.367 0 0 1 -22.4-9.283 5.914 5.914 0 0 0 -7.365.8l-6.074 6.073a2.489 2.489 0 0 1 -3.474 0l-11.4-11.4a2.489 2.489 0 0 1 0-3.473l6.074-6.074a5.918 5.918 0 0 0 .8-7.367 69.322 69.322 0 0 1 -9.283-22.4 5.915 5.915 0 0 0 -5.776-4.64h-8.592a2.489 2.489 0 0 1 -2.456-2.457v-16.12a2.489 2.489 0 0 1 2.456-2.458h8.587a5.916 5.916 0 0 0 5.777-4.64 69.335 69.335 0 0 1 9.283-22.4 5.917 5.917 0 0 0 -.8-7.366l-6.074-6.074a2.489 2.489 0 0 1 0-3.474l11.4-11.4a2.482 2.482 0 0 1 3.474 0l6.074 6.074a5.913 5.913 0 0 0 7.366.8 69.316 69.316 0 0 1 22.4-9.282 5.917 5.917 0 0 0 4.64-5.777v-8.587a2.489 2.489 0 0 1 2.456-2.456h16.117a2.489 2.489 0 0 1 2.457 2.456v8.587a5.917 5.917 0 0 0 4.64 5.777 69.334 69.334 0 0 1 22.4 9.283 5.915 5.915 0 0 0 7.366-.805l6.073-6.074a2.49 2.49 0 0 1 3.474 0l11.4 11.4a2.489 2.489 0 0 1 0 3.474l-6.074 6.074a5.916 5.916 0 0 0 -.8 7.366 69.315 69.315 0 0 1 9.283 22.4 5.916 5.916 0 0 0 5.777 4.639h8.587a2.489 2.489 0 0 1 2.456 2.456zm135.074 76.512h-26.548v-102.639h26.548zm19.049-91.03h-7.216v-17.527a5.917 5.917 0 0 0 -5.917-5.917h-38.38a5.917 5.917 0 0 0 -5.917 5.917v17.525h-84.86v-1.6a14.3 14.3 0 0 0 -14.289-14.288h-3.978a80.975 80.975 0 0 0 -7.238-17.469l2.814-2.815a14.306 14.306 0 0 0 0-20.208l-11.4-11.4a14.305 14.305 0 0 0 -20.208 0l-2.814 2.814a81.058 81.058 0 0 0 -17.468-7.241v-3.978a14.305 14.305 0 0 0 -14.293-14.286h-16.12a14.305 14.305 0 0 0 -14.28 14.289v3.975c-1.192.337-2.372.71-3.544 1.1v-39.061c11.111 4.508 27.076 9.293 49.934 14.3 37.969 8.311 78.158 13.588 90.439 14.92a6 6 0 0 0 1.276 0c15.731-1.707 54.668-6.939 89.441-14.528 20.711-4.52 37.185-9.262 48.967-14.093v42.78l-58.972-15.688a5.916 5.916 0 0 0 -5.835 1.67l-53.036 56.527a5.915 5.915 0 0 0 7.007 9.315l58.806-30.063 52.025 17.521v12.568a14.8 14.8 0 0 1 -.52 3.888h-8.118a5.916 5.916 0 0 0 -5.917 5.916v5.124c-.13.004-.259.011-.389.011zm38.77 91.03h-26.548v-90.255h6.141.028.025 20.354z" fill="url(#linear-gradient)"></path>
</svg>
