<?xml version="1.0" encoding="UTF-8"?>
<svg xmlns="http://www.w3.org/2000/svg" xmlns:xlink="http://www.w3.org/1999/xlink" id="Layer_1" height="512" viewBox="0 0 512 512" width="512" data-name="Layer 1">
  <linearGradient id="linear-gradient" gradientUnits="userSpaceOnUse" x1="16.249" x2="495.751" y1="256" y2="256">
    <stop offset="0" stop-color="#0036d0"></stop>
    <stop offset="1" stop-color="#2ec1ff"></stop>
  </linearGradient>
  <path d="m491.137 278.277-56.337-16.235a212.716 212.716 0 0 0 2.58-32.986 210.567 210.567 0 0 0 -359.458-148.893 210.623 210.623 0 0 0 219.785 347.219 145.654 145.654 0 0 0 8.706 13.054 142.193 142.193 0 0 0 78.455 52.864 6.379 6.379 0 0 0 3.239 0 142.193 142.193 0 0 0 78.455-52.865 146.413 146.413 0 0 0 29.189-87.15v-68.876a6.382 6.382 0 0 0 -4.614-6.132zm-102.883-29.649a6.376 6.376 0 0 0 -3.534 0l-46.972 13.536c.727-8.743 1.164-17.609 1.31-26.506l85.434.169a199.873 199.873 0 0 1 -2.059 22.65zm-161.44 178.231c-25.791 0-50.378-20.016-69.232-56.361a235.876 235.876 0 0 1 -15.392-37.784 363.655 363.655 0 0 1 84.624-9.648 380.188 380.188 0 0 1 50.41 3.32v26.9a143.866 143.866 0 0 0 5.435 38.953c-16.652 22.661-35.914 34.62-55.845 34.62zm55.024-148.582a6.382 6.382 0 0 0 -4.614 6.132v29.1a393.892 393.892 0 0 0 -50.41-3.2 375.784 375.784 0 0 0 -88.173 10.166c-6.953-26.121-10.844-55.087-11.313-85.229l198.966.393c-.172 10.2-.739 20.36-1.7 30.322zm-55.024-247.025c25.792 0 50.38 20.016 69.234 56.362a235.826 235.826 0 0 1 15.392 37.786 363.663 363.663 0 0 1 -84.625 9.649 363.669 363.669 0 0 1 -84.625-9.649 235.826 235.826 0 0 1 15.392-37.783c18.854-36.349 43.441-56.365 69.232-56.365zm0 116.556a375.832 375.832 0 0 0 88.173-10.165c6.954 26.12 10.845 55.085 11.314 85.227l-198.966-.392c.5-30 4.382-58.829 11.3-84.836a375.8 375.8 0 0 0 88.18 10.166zm112.253 75.092c-.471-31.225-4.512-61.3-11.749-88.507 21.472-6.162 40.929-14.337 57.44-24.276a196.731 196.731 0 0 1 39.763 112.951zm-224.495-.444-85.432-.168a196.726 196.726 0 0 1 39.732-112.175c16.511 9.938 35.968 18.114 57.44 24.276-7.203 27.075-11.239 56.998-11.74 88.063zm-.009 12.763c.47 31.224 4.512 61.3 11.749 88.507-21.472 6.158-40.929 14.334-57.44 24.274a196.736 196.736 0 0 1 -39.762-112.954zm262.1-135.134c-15.259 8.982-33.148 16.408-52.873 22.067a248.9 248.9 0 0 0 -16.415-40.411c-9.97-19.22-21.6-34.366-34.326-45.015a198.065 198.065 0 0 1 103.616 63.355zm-196.085-63.363c-12.729 10.649-24.355 25.8-34.325 45.015a248.9 248.9 0 0 0 -16.415 40.411c-19.725-5.66-37.614-13.085-52.873-22.067a198.06 198.06 0 0 1 103.613-63.359zm-103.613 321.309c15.259-8.983 33.148-16.408 52.873-22.068a248.907 248.907 0 0 0 16.415 40.412c9.97 19.219 21.6 34.365 34.325 45.014a198.058 198.058 0 0 1 -103.613-63.358zm196 63.416a115.759 115.759 0 0 0 14.585-14.747q1.872 4.712 4.067 9.294-9.205 3.189-18.655 5.453zm210.027-68.161a131.9 131.9 0 0 1 -96.5 127.235 131.9 131.9 0 0 1 -96.5-127.235v-64.075l96.5-27.811 96.5 27.811zm-96.5-59.007a35.306 35.306 0 0 0 -35.264 35.109h-1.006a17.24 17.24 0 0 0 -17.222 17.221v66.7a17.24 17.24 0 0 0 17.22 17.22h72.541a17.241 17.241 0 0 0 17.221-17.22v-66.7a17.241 17.241 0 0 0 -17.221-17.221h-1a35.307 35.307 0 0 0 -35.274-35.109zm40.73 52.33v66.7a4.464 4.464 0 0 1 -4.459 4.458h-72.546a4.463 4.463 0 0 1 -4.458-4.458v-66.7a4.463 4.463 0 0 1 4.458-4.459h72.541a4.464 4.464 0 0 1 4.459 4.459zm-63.232-17.221a22.5 22.5 0 0 1 45.005 0zm22.5 27.133a16.886 16.886 0 0 0 -6.381 32.523v14.8a6.382 6.382 0 1 0 12.763 0v-14.8a16.886 16.886 0 0 0 -6.382-32.523zm0 12.762a4.13 4.13 0 1 1 -4.129 4.13 4.134 4.134 0 0 1 4.126-4.13z" fill="url(#linear-gradient)"></path>
</svg>
