<?xml version="1.0" encoding="UTF-8"?>
<svg xmlns="http://www.w3.org/2000/svg" xmlns:xlink="http://www.w3.org/1999/xlink" id="Layer_1" height="512" viewBox="0 0 512 512" width="512" data-name="Layer 1">
  <linearGradient id="linear-gradient" gradientUnits="userSpaceOnUse" x1="33.026" x2="478.974" y1="256" y2="256">
    <stop offset="0" stop-color="#0036d0"></stop>
    <stop offset="1" stop-color="#2ec1ff"></stop>
  </linearGradient>
  <path d="m428.284 254.21a170.511 170.511 0 0 0 -16.233-73.074c19.771-26.94 43-60.567 43-83.867a67.573 67.573 0 0 0 -135.072-3.069 170.829 170.829 0 0 0 -63.979-12.275c-95 0-172.285 77.287-172.285 172.285s77.285 172.29 172.285 172.29 172.284-77.292 172.284-172.29zm-172.284-159.51c20.421 0 40 16.066 55.134 45.237a190.02 190.02 0 0 1 12.02 29.189 292.948 292.948 0 0 1 -67.154 7.5 295.155 295.155 0 0 1 -67.158-7.488 190.108 190.108 0 0 1 12.024-29.2c15.134-29.171 34.713-45.238 55.134-45.238zm0 94.7a305.386 305.386 0 0 0 70.736-8 286.445 286.445 0 0 1 8.868 66.579l-159.2-.314a286.345 286.345 0 0 1 8.864-66.272 307.21 307.21 0 0 0 70.732 8.007zm112.991-.013c5.223 7.06 9.733 13.158 13.211 18.253a6.388 6.388 0 0 0 10.551 0c2.875-4.21 6.463-9.118 10.568-14.677a157.47 157.47 0 0 1 12.062 55.173l-67-.133a299.557 299.557 0 0 0 -9.308-69.881q8.965-2.629 17.4-5.846c4.282 5.977 8.54 11.736 12.516 17.112zm46.367 71.525a158.629 158.629 0 0 1 -31.344 88.35 196.668 196.668 0 0 0 -44.939-18.971 299.368 299.368 0 0 0 9.3-69.512zm-251.733-13.273-66.983-.132a158.628 158.628 0 0 1 31.343-88.35 196.631 196.631 0 0 0 44.94 18.971 299.366 299.366 0 0 0 -9.3 69.511zm-.007 12.776a299.523 299.523 0 0 0 9.307 69.877 196.7 196.7 0 0 0 -44.94 18.971 158.636 158.636 0 0 1 -31.367-88.98zm12.777.025 159.2.315a286.253 286.253 0 0 1 -8.864 66.273 316.359 316.359 0 0 0 -141.468 0 286.468 286.468 0 0 1 -8.863-66.588zm79.605 71.36a295.161 295.161 0 0 1 67.158 7.488 190.055 190.055 0 0 1 -12.024 29.2c-15.134 29.165-34.713 45.23-55.134 45.23s-40-16.065-55.134-45.237a190.055 190.055 0 0 1 -12.024-29.2 295.161 295.161 0 0 1 67.158-7.481zm41.934 76.32c9.032-8.5 17.317-19.825 24.541-33.75a203.2 203.2 0 0 0 13.045-31.827 185.679 185.679 0 0 1 40.368 16.757 159.792 159.792 0 0 1 -77.954 48.815zm89.544-365.653a54.865 54.865 0 0 1 54.8 54.8c0 21.537-28.036 59.441-46.588 84.522-2.981 4.031-5.733 7.752-8.214 11.179-2.481-3.427-5.234-7.149-8.215-11.18-18.552-25.081-46.586-62.984-46.586-84.521a54.864 54.864 0 0 1 54.803-54.8zm-66 66.262c4 15.993 15.182 34.874 27.408 52.737q-6.515 2.375-13.374 4.39a203.239 203.239 0 0 0 -13.037-31.8c-7.241-13.957-15.548-25.3-24.6-33.808a158.2 158.2 0 0 1 23.603 8.481zm-107.412-8.423c-9.032 8.5-17.317 19.824-24.541 33.749a203.268 203.268 0 0 0 -13.046 31.828 185.672 185.672 0 0 1 -40.367-16.765 159.783 159.783 0 0 1 77.954-48.812zm-77.954 259a185.729 185.729 0 0 1 40.368-16.764 203.2 203.2 0 0 0 13.045 31.827c7.224 13.925 15.509 25.25 24.541 33.75a159.792 159.792 0 0 1 -77.954-48.819zm278.382-278.098a27.016 27.016 0 1 0 -27.016 27.015 27.047 27.047 0 0 0 27.016-27.015zm-41.256 0a14.24 14.24 0 1 1 14.24 14.24 14.256 14.256 0 0 1 -14.24-14.24zm-288.686 294.641a6.388 6.388 0 0 1 -10.413 7.4 222.987 222.987 0 0 1 181.861-352.012 224.116 224.116 0 0 1 46.384 4.841l-6.874-10.094a6.388 6.388 0 1 1 10.559-7.192l16.331 23.981a6.322 6.322 0 0 1 .329.54c.049.09.089.182.133.273s.1.189.137.287.084.221.124.332c.03.084.064.168.091.254.034.106.058.213.085.319s.053.191.073.288.031.186.046.279c.019.114.039.228.052.344.008.075.009.151.015.227.009.133.019.265.02.4 0 .063 0 .125-.006.187 0 .145-.006.29-.019.435-.006.063-.018.126-.026.189-.017.142-.033.284-.06.426q-.057.3-.144.6v.01c-.019.062-.044.12-.063.181-.045.137-.089.274-.143.408-.038.095-.083.184-.125.276s-.087.2-.137.293-.115.2-.173.3c-.047.08-.092.161-.143.239-.068.1-.142.2-.216.3-.05.068-.1.137-.15.2-.085.106-.177.2-.268.3-.049.054-.095.11-.146.162-.114.116-.235.225-.358.332-.035.031-.066.064-.1.093a6.616 6.616 0 0 1 -.539.407l-23.955 16.326a6.388 6.388 0 1 1 -7.19-10.56l12.312-8.384a211.141 211.141 0 0 0 -45.856-5.023c-115.9 0-210.2 94.293-210.2 210.2a208.79 208.79 0 0 0 38.752 121.636zm394.422-121.639a222.974 222.974 0 0 1 -222.974 222.973q-6.384 0-12.78-.37l7.991 8.4a6.388 6.388 0 1 1 -9.254 8.808l-20-21.015a6.388 6.388 0 0 1 .223-9.031l21.015-20.005a6.388 6.388 0 0 1 8.805 9.249l-11.18 10.641c5.05.36 10.123.547 15.18.547 115.9 0 210.2-94.294 210.2-210.2a208.023 208.023 0 0 0 -22.3-94.32 6.388 6.388 0 0 1 11.413-5.741 220.69 220.69 0 0 1 23.661 100.064z" fill="url(#linear-gradient)"></path>
</svg>
