<?xml version="1.0" encoding="UTF-8"?>
<svg xmlns="http://www.w3.org/2000/svg" xmlns:xlink="http://www.w3.org/1999/xlink" id="Layer_1" height="512" viewBox="0 0 512 512" width="512" data-name="Layer 1">
  <linearGradient id="linear-gradient" gradientUnits="userSpaceOnUse" x1="21.957" x2="490.043" y1="256" y2="256">
    <stop offset="0" stop-color="#0036d0"></stop>
    <stop offset="1" stop-color="#2ec1ff"></stop>
  </linearGradient>
  <path d="m446.951 348.608h-2.4a70.5 70.5 0 0 0 -5.542-13.374l1.7-1.7a13.565 13.565 0 0 0 0-19.16l-9.747-9.746a13.568 13.568 0 0 0 -19.159 0l-1.7 1.7a70.568 70.568 0 0 0 -13.373-5.541v-2.4a13.563 13.563 0 0 0 -13.548-13.547h-.5v-41.81a113.6 113.6 0 0 0 -6.239-227.03 113.8 113.8 0 0 0 -107.39 76.553h-105.053a29.866 29.866 0 1 0 -34.67 38.76v134.7h-100.495a6.886 6.886 0 0 0 -6.878 6.878v172.035a6.886 6.886 0 0 0 6.878 6.878h90.687v7.131h-24.857a18.533 18.533 0 0 0 0 37.065h102.694a18.533 18.533 0 0 0 0-37.065h-24.859v-7.135h90.687a6.886 6.886 0 0 0 6.878-6.878v-69.487h22.007v.5a13.563 13.563 0 0 0 13.547 13.547h2.4a70.619 70.619 0 0 0 5.542 13.374l-1.7 1.7a13.565 13.565 0 0 0 0 19.159l9.747 9.745a13.566 13.566 0 0 0 19.159 0l1.7-1.7a70.5 70.5 0 0 0 13.373 5.543v2.4a13.563 13.563 0 0 0 13.547 13.547h13.785a13.564 13.564 0 0 0 13.548-13.547v-2.4a70.581 70.581 0 0 0 13.374-5.542l1.7 1.7a13.566 13.566 0 0 0 19.159 0l9.746-9.746a13.569 13.569 0 0 0 0-19.16l-1.7-1.7a70.543 70.543 0 0 0 5.542-13.374h2.4a13.563 13.563 0 0 0 13.559-13.542v-13.784a13.562 13.562 0 0 0 -13.549-13.547zm-70.509-319.832c16.531 0 31.471 17.724 40.448 44.2a190.05 190.05 0 0 1 -40.447 4.224 190.057 190.057 0 0 1 -40.443-4.222c8.972-26.478 23.911-44.202 40.442-44.202zm0 61.2a201.962 201.962 0 0 0 44.019-4.729 184.342 184.342 0 0 1 5.105 38.061l-98.242-.194a184.214 184.214 0 0 1 5.1-37.867 201.962 201.962 0 0 0 44.019 4.729zm0 140.447c-16.531 0-31.47-17.724-40.447-44.2a195.863 195.863 0 0 1 80.9 0c-8.982 26.477-23.921 44.2-40.452 44.2zm0-61.2a201.961 201.961 0 0 0 -44.019 4.73 184.361 184.361 0 0 1 -5.1-38.062l98.242.194a184.293 184.293 0 0 1 -5.1 37.868 201.961 201.961 0 0 0 -44.022-4.731zm61.9-33.113 38.708.077a100.241 100.241 0 0 1 -18.5 51.87 129.7 129.7 0 0 0 -25.694-10.832 196.061 196.061 0 0 0 5.482-41.116zm.01-12.775a196.244 196.244 0 0 0 -5.5-41.36 129.7 129.7 0 0 0 25.694-10.831 100.231 100.231 0 0 1 18.525 52.267zm-123.8-.245-38.707-.077a100.233 100.233 0 0 1 18.5-51.869 129.7 129.7 0 0 0 25.694 10.831 196.061 196.061 0 0 0 -5.491 41.114zm-.01 12.776a196.235 196.235 0 0 0 5.5 41.359 129.748 129.748 0 0 0 -25.693 10.831 100.232 100.232 0 0 1 -18.526-52.267zm9.065 53.6a131.729 131.729 0 0 0 7.875 18.82 92.679 92.679 0 0 0 10.384 16.022 101.134 101.134 0 0 1 -39.313-26.2 118.781 118.781 0 0 1 21.047-8.638zm87.421 34.843a92.689 92.689 0 0 0 10.384-16.023 131.844 131.844 0 0 0 7.875-18.82 118.823 118.823 0 0 1 21.055 8.643 101.147 101.147 0 0 1 -39.318 26.204zm39.31-163.224a118.749 118.749 0 0 1 -21.055 8.644 131.8 131.8 0 0 0 -7.875-18.82 92.65 92.65 0 0 0 -10.384-16.023 101.137 101.137 0 0 1 39.314 26.199zm-108.476-26.2a92.65 92.65 0 0 0 -10.384 16.023 131.566 131.566 0 0 0 -7.875 18.82 118.707 118.707 0 0 1 -21.054-8.644 101.137 101.137 0 0 1 39.313-26.198zm-223.243 67.253a17.094 17.094 0 1 1 17.094 17.094 17.114 17.114 0 0 1 -17.094-17.094zm138.672 176.651v134.524h-222.558v-134.524zm-54.176 198.679a5.762 5.762 0 0 1 -5.756 5.756h-102.694a5.757 5.757 0 1 1 0-11.513h102.694a5.763 5.763 0 0 1 5.756 5.757zm-43.389-18.533h-27.426v-7.135h27.428zm-124.993-19.907v-12.939h222.558v12.939zm235.334-76.369v-89.768a6.886 6.886 0 0 0 -6.878-6.878h-121.089v-134.7a29.934 29.934 0 0 0 23.309-25.984h100.054a113.612 113.612 0 0 0 104.437 137.676v41.83h-.505a13.563 13.563 0 0 0 -13.547 13.547v2.4a70.541 70.541 0 0 0 -13.373 5.541l-1.7-1.7a13.568 13.568 0 0 0 -19.159 0l-9.747 9.748a13.568 13.568 0 0 0 0 19.158l1.7 1.7a70.481 70.481 0 0 0 -5.543 13.374h-2.4a13.562 13.562 0 0 0 -13.547 13.547v.5zm177.655 13.28a.791.791 0 0 1 -.771.771h-7.342a6.387 6.387 0 0 0 -6.237 5.01 57.962 57.962 0 0 1 -7.761 18.728 6.39 6.39 0 0 0 .868 7.954l5.194 5.192a.8.8 0 0 1 0 1.092l-9.748 9.748a.792.792 0 0 1 -1.09 0l-5.194-5.194a6.388 6.388 0 0 0 -7.953-.867 57.982 57.982 0 0 1 -18.728 7.76 6.387 6.387 0 0 0 -5.01 6.237v7.343a.792.792 0 0 1 -.772.771h-13.785a.791.791 0 0 1 -.771-.771v-7.343a6.387 6.387 0 0 0 -5.01-6.237 57.905 57.905 0 0 1 -18.727-7.761 6.391 6.391 0 0 0 -7.953.868l-5.195 5.2a.793.793 0 0 1 -1.091 0l-9.747-9.747a.793.793 0 0 1 0-1.091l5.194-5.193a6.39 6.39 0 0 0 .868-7.954 57.964 57.964 0 0 1 -7.76-18.729 6.388 6.388 0 0 0 -6.237-5.009h-7.343a.791.791 0 0 1 -.771-.771v-13.791a.792.792 0 0 1 .771-.772h7.343a6.386 6.386 0 0 0 6.237-5.01 57.987 57.987 0 0 1 7.761-18.729 6.387 6.387 0 0 0 -.869-7.951l-5.193-5.193a.794.794 0 0 1 0-1.091l9.748-9.747a.789.789 0 0 1 1.09 0l5.194 5.193a6.388 6.388 0 0 0 7.953.868 57.949 57.949 0 0 1 18.727-7.76 6.386 6.386 0 0 0 5.01-6.237v-7.343a.791.791 0 0 1 .771-.771h13.785a.792.792 0 0 1 .772.771v7.343a6.387 6.387 0 0 0 5.01 6.237 57.969 57.969 0 0 1 18.728 7.76 6.388 6.388 0 0 0 7.953-.868l5.193-5.193a.789.789 0 0 1 1.091 0l9.747 9.745a.793.793 0 0 1 0 1.092l-5.194 5.194a6.388 6.388 0 0 0 -.868 7.953 57.984 57.984 0 0 1 7.761 18.729 6.387 6.387 0 0 0 6.237 5.009h7.342a.792.792 0 0 1 .771.772zm-71.436-52.459a45.567 45.567 0 1 0 45.567 45.567 45.619 45.619 0 0 0 -45.567-45.567zm0 78.358a32.791 32.791 0 1 1 32.791-32.791 32.828 32.828 0 0 1 -32.791 32.791z" fill="url(#linear-gradient)"></path>
</svg>
