<?xml version="1.0" encoding="UTF-8"?>
<svg xmlns="http://www.w3.org/2000/svg" xmlns:xlink="http://www.w3.org/1999/xlink" id="Layer_1" height="512" viewBox="0 0 512 512" width="512" data-name="Layer 1">
  <linearGradient id="linear-gradient" gradientUnits="userSpaceOnUse" x1="125.185" x2="409.515" y1="504.173" y2="11.699">
    <stop offset="0" stop-color="#0036d0"></stop>
    <stop offset="1" stop-color="#2ec1ff"></stop>
  </linearGradient>
  <path d="m244.7 190.258a39.443 39.443 0 1 0 39.44 39.442 39.488 39.488 0 0 0 -39.44-39.442zm0 66.133a26.69 26.69 0 1 1 26.69-26.69 26.72 26.72 0 0 1 -26.69 26.69zm233.071-202.534h-161.055a17.824 17.824 0 0 0 -17.8 17.8v34.668h-231.738a32.53 32.53 0 0 0 -32.489 32.506l.656 249.711h-4.712c-7.968 0-14.209 5.032-14.209 11.454v26.153c0 17.938 20.152 31.99 45.878 31.99h364.791c25.726 0 45.877-14.052 45.877-31.99v-26.149c0-6.422-6.241-11.454-14.208-11.454h-3.6l-.335-182.213h22.941a17.825 17.825 0 0 0 17.805-17.8v-116.872a17.825 17.825 0 0 0 -17.802-17.804zm-137.138 183.943a6.374 6.374 0 0 0 6.376 0l54.505-31.468h14.038v144.992a8.612 8.612 0 0 1 -8.6 8.6h-82.831v-36.007a46.062 46.062 0 0 0 -46.009-46.009h-66.83a46.062 46.062 0 0 0 -46.009 46.009v36.009h-82.829a8.612 8.612 0 0 1 -8.6-8.6v-197.564a8.611 8.611 0 0 1 8.6-8.6h216.468v43.368a17.824 17.824 0 0 0 17.8 17.8h20.728v25.95a6.377 6.377 0 0 0 3.193 5.52zm-54.011 100.514a6.376 6.376 0 0 0 -6.376 6.376v15.236h-71.1v-15.236a6.377 6.377 0 0 0 -12.753 0v15.236h-18.367v-36.009a33.294 33.294 0 0 1 33.256-33.256h66.83a33.294 33.294 0 0 1 33.256 33.256v36.009h-18.368v-15.236a6.376 6.376 0 0 0 -6.378-6.376zm173.595 63.186v24.65c0 10.247-15.478 19.237-33.124 19.237h-364.793c-17.646 0-33.125-8.99-33.125-19.237v-24.65a4.96 4.96 0 0 1 1.456-.2h150.839l15.893 17.849a6.378 6.378 0 0 0 4.762 2.136h85.144a6.378 6.378 0 0 0 4.762-2.136l15.893-17.849h150.838a4.957 4.957 0 0 1 1.455.2zm-17.805-12.957h-137.348a6.378 6.378 0 0 0 -4.763 2.137l-15.892 17.848h-79.424l-15.893-17.849a6.38 6.38 0 0 0 -4.762-2.136h-136.23l-.656-249.728a19.758 19.758 0 0 1 19.736-19.735h231.732v13.325h-216.468a21.379 21.379 0 0 0 -21.355 21.354v197.565a21.379 21.379 0 0 0 21.355 21.355h324.506a21.379 21.379 0 0 0 21.355-21.355v-144.991h13.772zm40.411-200.017a5.057 5.057 0 0 1 -5.052 5.051h-77.966a6.362 6.362 0 0 0 -3.188.855l-46.42 26.8v-21.275a6.377 6.377 0 0 0 -6.376-6.377h-27.105a5.057 5.057 0 0 1 -5.051-5.051v-116.868a5.057 5.057 0 0 1 5.051-5.051h161.055a5.057 5.057 0 0 1 5.052 5.051zm-142.938-86.59a6.377 6.377 0 0 1 6.376-6.377h50.983a6.377 6.377 0 1 1 0 12.753h-50.983a6.376 6.376 0 0 1 -6.376-6.376zm114.715 29.982a6.377 6.377 0 0 1 -6.377 6.377h-101.962a6.377 6.377 0 0 1 0-12.753h101.965a6.376 6.376 0 0 1 6.374 6.376zm0 27.97a6.376 6.376 0 0 1 -6.377 6.376h-101.962a6.377 6.377 0 0 1 0-12.753h101.965a6.377 6.377 0 0 1 6.374 6.377z" fill="url(#linear-gradient)"></path>
</svg>
