<?xml version="1.0" encoding="UTF-8"?>
<svg xmlns="http://www.w3.org/2000/svg" xmlns:xlink="http://www.w3.org/1999/xlink" id="Layer_1" height="512" viewBox="0 0 512 512" width="512" data-name="Layer 1">
  <linearGradient id="linear-gradient" gradientUnits="userSpaceOnUse" x1="16.253" x2="495.747" y1="256" y2="256">
    <stop offset="0" stop-color="#0036d0"></stop>
    <stop offset="1" stop-color="#2ec1ff"></stop>
  </linearGradient>
  <path d="m494.2 453.264c.077-.089.153-.179.224-.271.051-.066.1-.135.147-.2.071-.1.141-.2.206-.3.044-.072.085-.145.127-.218.059-.1.117-.2.169-.31.043-.085.081-.172.12-.259s.086-.192.123-.29.075-.207.11-.312c.028-.085.056-.169.081-.255.034-.119.061-.239.088-.36.017-.077.035-.153.049-.23.023-.126.041-.252.056-.379.009-.078.02-.156.026-.234.011-.121.015-.242.019-.364 0-.09 0-.18 0-.271s-.008-.213-.015-.32-.016-.22-.029-.33c-.01-.089-.024-.178-.038-.267-.02-.127-.044-.253-.072-.379-.009-.039-.013-.077-.022-.116a160.517 160.517 0 0 0 -93.72-109.73l46.921-282.669a6.382 6.382 0 0 0 -5.126-7.318l-26.963-5.023a6.383 6.383 0 0 0 -7.418 4.98l-57.482 277.99c-3.814-.28-7.641-.43-11.476-.43h-168.605c-3.835 0-7.662.15-11.476.43l-57.487-277.986a6.386 6.386 0 0 0 -7.418-4.98l-26.963 5.023a6.382 6.382 0 0 0 -5.126 7.314l46.919 282.658a160.524 160.524 0 0 0 -93.72 109.73c-.009.039-.013.078-.022.117-.028.125-.052.251-.072.377-.014.089-.028.179-.039.269-.012.109-.021.219-.028.329s-.013.213-.015.32v.272c0 .121.007.242.018.363.006.078.017.156.026.234.016.127.033.253.056.378.014.078.032.155.049.233.027.119.054.239.088.357.025.087.054.172.082.258.034.1.069.208.108.309s.082.2.125.294.076.171.118.254c.053.107.112.211.172.315.041.071.081.143.124.213.066.105.138.208.21.309.047.067.093.133.143.2.072.094.149.185.227.275.061.071.122.141.186.208s.146.149.222.222.162.154.247.228c.067.058.136.114.206.169.1.08.2.158.311.232.032.023.061.049.094.071a86.891 86.891 0 0 0 48.643 14.849h376.58a86.891 86.891 0 0 0 48.643-14.843c.032-.022.06-.047.092-.069.108-.076.213-.154.315-.236.069-.054.136-.109.2-.166.086-.074.17-.152.252-.231s.148-.144.218-.218.129-.144.192-.216zm-73.707-396.709 14.663 2.732-45.487 274.028a159.844 159.844 0 0 0 -25.157-6.032zm-80.188 281.606a148.646 148.646 0 0 1 15.718.831c.114.015.228.03.342.039a146.634 146.634 0 0 1 35.111 8.266 6.346 6.346 0 0 0 2.02.769 146.357 146.357 0 0 1 24.94 12.506 6.326 6.326 0 0 0 -.109 1.151 20.262 20.262 0 0 1 -20.239 20.239h-284.176a20.262 20.262 0 0 1 -20.239-20.239 6.326 6.326 0 0 0 -.109-1.151 146.44 146.44 0 0 1 24.941-12.506 6.348 6.348 0 0 0 2.018-.768 146.6 146.6 0 0 1 35.1-8.266c.117-.01.235-.024.353-.041a148.838 148.838 0 0 1 15.714-.83zm-263.461-278.874 14.663-2.732 55.981 270.728a159.844 159.844 0 0 0 -25.157 6.032zm29.733 397.2c35.069-15.887 90.357-25.627 149.423-25.627s114.355 9.742 149.424 25.623zm324.935 0c-33.968-23.714-100.848-38.387-175.512-38.387s-141.543 14.673-175.511 38.383h-12.777a74.1 74.1 0 0 1 -37.725-10.3 146.988 146.988 0 0 1 51.713-77.319 33.053 33.053 0 0 0 32.214 25.86h284.174a33.053 33.053 0 0 0 32.212-25.861 146.981 146.981 0 0 1 51.711 77.32 74.1 74.1 0 0 1 -37.725 10.3zm-273.435-95.132a6.381 6.381 0 0 1 -6.382 6.381h-1.632a6.381 6.381 0 0 1 0-12.762h1.637a6.381 6.381 0 0 1 6.377 6.381zm8.358 0a6.381 6.381 0 0 1 6.381-6.381h1.633a6.381 6.381 0 0 1 0 12.762h-1.633a6.381 6.381 0 0 1 -6.381-6.381zm22.753 0a6.381 6.381 0 0 1 6.381-6.381h1.631a6.381 6.381 0 0 1 0 12.762h-1.633a6.381 6.381 0 0 1 -6.379-6.381zm22.753 0a6.381 6.381 0 0 1 6.382-6.381h101.347a6.381 6.381 0 0 1 0 12.762h-101.347a6.381 6.381 0 0 1 -6.382-6.381zm22.7-136.89a21.076 21.076 0 1 0 21.076-21.076 21.1 21.1 0 0 0 -21.077 21.076zm29.39 0a8.314 8.314 0 1 1 -8.314-8.313 8.323 8.323 0 0 1 8.313 8.313zm-96.223-74.913a6.383 6.383 0 0 1 -.219-9.022 121.7 121.7 0 0 1 176.256 0 6.381 6.381 0 1 1 -9.241 8.8 108.941 108.941 0 0 0 -157.774 0 6.382 6.382 0 0 1 -9.023.222zm87.909 1.23a73.753 73.753 0 0 0 -55.222 24.9 6.381 6.381 0 1 1 -9.561-8.453 86.448 86.448 0 0 1 129.566 0 6.381 6.381 0 1 1 -9.561 8.453 73.756 73.756 0 0 0 -55.223-24.9zm0 35.258a38.571 38.571 0 0 0 -31.136 15.9 6.382 6.382 0 0 1 -10.334-7.491 51.2 51.2 0 0 1 82.94 0 6.382 6.382 0 0 1 -10.334 7.491 38.571 38.571 0 0 0 -31.137-15.9z" fill="url(#linear-gradient)"></path>
</svg>
