<?xml version="1.0" encoding="UTF-8"?>
<svg xmlns="http://www.w3.org/2000/svg" xmlns:xlink="http://www.w3.org/1999/xlink" id="Layer_1" height="512" viewBox="0 0 512 512" width="512" data-name="Layer 1">
  <linearGradient id="linear-gradient" gradientUnits="userSpaceOnUse" x1="16" x2="496" y1="256" y2="256">
    <stop offset="0" stop-color="#0036d0"></stop>
    <stop offset="1" stop-color="#2ec1ff"></stop>
  </linearGradient>
  <path d="m61.938 109.524a6.388 6.388 0 0 1 0-12.776h1.753a6.388 6.388 0 0 1 0 12.776zm27.024 0h1.753a6.388 6.388 0 0 0 0-12.776h-1.753a6.388 6.388 0 0 0 0 12.776zm27.023 0h1.753a6.388 6.388 0 1 0 0-12.776h-1.753a6.388 6.388 0 0 0 0 12.776zm27.024 0h170.105a6.388 6.388 0 1 0 0-12.776h-170.1a6.388 6.388 0 1 0 0 12.776zm-79.318 117.156a6.388 6.388 0 1 0 0-12.775h-1.753a6.388 6.388 0 1 0 0 12.775zm25.271 0h1.753a6.388 6.388 0 0 0 0-12.775h-1.753a6.388 6.388 0 1 0 0 12.775zm27.023 0h1.753a6.388 6.388 0 1 0 0-12.775h-1.753a6.388 6.388 0 1 0 0 12.775zm27.024 0h170.105a6.388 6.388 0 1 0 0-12.775h-170.1a6.388 6.388 0 1 0 0 12.775zm-79.318 104.381h-1.753a6.388 6.388 0 0 0 0 12.776h1.753a6.388 6.388 0 0 0 0-12.776zm27.024 0h-1.753a6.388 6.388 0 0 0 0 12.776h1.753a6.388 6.388 0 0 0 0-12.776zm27.023 0h-1.753a6.388 6.388 0 0 0 0 12.776h1.753a6.388 6.388 0 0 0 0-12.776zm378.262-2.824v20.08a16.836 16.836 0 0 1 -16.818 16.818h-5.7a99.953 99.953 0 0 1 -9.493 22.91l4.034 4.033a16.849 16.849 0 0 1 0 23.784l-14.2 14.2a16.845 16.845 0 0 1 -23.783 0l-4.033-4.033a99.916 99.916 0 0 1 -22.91 9.493v5.7a16.837 16.837 0 0 1 -16.818 16.817h-20.079a16.836 16.836 0 0 1 -16.817-16.817v-5.7a99.915 99.915 0 0 1 -22.909-9.494l-4.034 4.035a16.848 16.848 0 0 1 -23.784 0l-14.2-14.2a16.845 16.845 0 0 1 0-23.783l4.033-4.033c-.268-.47-.52-.948-.78-1.422h-252.55a19.181 19.181 0 0 1 -19.159-19.161v-60.031a19.18 19.18 0 0 1 19.159-19.158h17.323v-18.808h-17.323a19.181 19.181 0 0 1 -19.159-19.159v-60.031a19.181 19.181 0 0 1 19.159-19.16h17.323v-18.807h-17.323a19.18 19.18 0 0 1 -19.159-19.159v-60.031a19.181 19.181 0 0 1 19.159-19.159h328.922a19.181 19.181 0 0 1 19.159 19.159v60.031a19.18 19.18 0 0 1 -19.159 19.159h-17.323v18.807h17.323a19.181 19.181 0 0 1 19.159 19.16v28.239h3.039a16.838 16.838 0 0 1 16.821 16.818v5.7a99.99 99.99 0 0 1 22.909 9.493l4.034-4.034a16.837 16.837 0 0 1 23.783 0l14.2 14.2a16.848 16.848 0 0 1 0 23.783l-4.033 4.033a99.924 99.924 0 0 1 9.493 22.91h5.7a16.836 16.836 0 0 1 16.814 16.818zm-460.841-188.702h328.922a6.391 6.391 0 0 0 6.383-6.384v-60.031a6.39 6.39 0 0 0 -6.383-6.383h-328.922a6.39 6.39 0 0 0 -6.383 6.383v60.031a6.391 6.391 0 0 0 6.383 6.384zm30.1 31.582h268.723v-18.807h-268.725zm-30.1 85.574h253.3l10.2-10.2a16.836 16.836 0 0 1 23.783 0l4.033 4.034a99.953 99.953 0 0 1 22.909-9.493v-5.7a16.837 16.837 0 0 1 16.816-16.816h4.266v-28.239a6.39 6.39 0 0 0 -6.383-6.384h-328.924a6.39 6.39 0 0 0 -6.383 6.384v60.031a6.39 6.39 0 0 0 6.383 6.383zm30.1 31.584h223l-3.8-3.8a16.7 16.7 0 0 1 -4.913-11.891 17.074 17.074 0 0 1 .294-3.119h-214.583zm216.574 85.572q-1.613-4.281-2.834-8.712h-5.7a16.836 16.836 0 0 1 -16.818-16.818v-4.48h-113.472a6.388 6.388 0 1 1 0-12.776h113.469v-2.824a16.836 16.836 0 0 1 16.822-16.817h5.7a100.037 100.037 0 0 1 3.486-10.37h-247.327a6.39 6.39 0 0 0 -6.383 6.383v60.031a6.39 6.39 0 0 0 6.383 6.383zm201.393-45.61a4.1 4.1 0 0 0 -4.042-4.041h-10.697a6.389 6.389 0 0 1 -6.238-5.01 87.336 87.336 0 0 0 -11.7-28.224 6.388 6.388 0 0 1 .868-7.953l7.567-7.566a4.072 4.072 0 0 0 0-5.715l-14.2-14.2a4.1 4.1 0 0 0 -5.716 0l-7.566 7.566a6.387 6.387 0 0 1 -7.953.869 87.351 87.351 0 0 0 -28.223-11.7 6.387 6.387 0 0 1 -5.01-6.237v-10.7a4.1 4.1 0 0 0 -4.042-4.042h-20.074a4.1 4.1 0 0 0 -4.041 4.042v10.7a6.387 6.387 0 0 1 -5.01 6.237 87.36 87.36 0 0 0 -28.223 11.694 6.383 6.383 0 0 1 -7.953-.868l-7.566-7.567a4.1 4.1 0 0 0 -5.716 0l-12.069 12.078-2.131 2.132a4.093 4.093 0 0 0 0 5.715l7.566 7.566a6.388 6.388 0 0 1 .868 7.953q-2.091 3.278-3.875 6.707c-.008.014-.014.029-.021.043a87.253 87.253 0 0 0 -7.8 21.473 6.389 6.389 0 0 1 -6.238 5.011h-10.691a4.1 4.1 0 0 0 -4.042 4.041v20.08a4.1 4.1 0 0 0 4.042 4.043h10.7a6.387 6.387 0 0 1 6.237 5.009 87.342 87.342 0 0 0 11.694 28.224 6.386 6.386 0 0 1 -.868 7.953l-7.565 7.566a4.071 4.071 0 0 0 0 5.715l14.2 14.2a4.073 4.073 0 0 0 5.716 0l7.567-7.567a6.39 6.39 0 0 1 7.952-.868 87.367 87.367 0 0 0 28.224 11.695 6.387 6.387 0 0 1 5.01 6.237v10.7a4.1 4.1 0 0 0 4.041 4.041h20.081a4.1 4.1 0 0 0 4.042-4.041v-10.7a6.387 6.387 0 0 1 5.01-6.237 87.338 87.338 0 0 0 28.223-11.694 6.385 6.385 0 0 1 7.953.867l7.567 7.566a4.071 4.071 0 0 0 5.715 0l14.2-14.2a4.073 4.073 0 0 0 0-5.716l-7.566-7.566a6.387 6.387 0 0 1 -.868-7.952 87.372 87.372 0 0 0 11.694-28.225 6.388 6.388 0 0 1 6.238-5.009h10.695a4.1 4.1 0 0 0 4.042-4.043zm-43.526 10.041a63.463 63.463 0 1 1 -104.947-47.967 6.426 6.426 0 0 1 1.062-.92l.08-.07a6.445 6.445 0 0 1 1.077-.846 63.411 63.411 0 0 1 102.728 49.8zm-12.776 0a50.66 50.66 0 0 0 -80.884-40.684 6.4 6.4 0 0 1 -3.887 3.2 50.678 50.678 0 1 0 84.771 37.485z" fill="url(#linear-gradient)"></path>
</svg>
