<?xml version="1.0" encoding="UTF-8"?>
<svg xmlns="http://www.w3.org/2000/svg" xmlns:xlink="http://www.w3.org/1999/xlink" id="Layer_1" height="512" viewBox="0 0 512 512" width="512" data-name="Layer 1">
  <linearGradient id="linear-gradient" gradientUnits="userSpaceOnUse" x1="16" x2="496" y1="256" y2="256">
    <stop offset="0" stop-color="#0036d0"></stop>
    <stop offset="1" stop-color="#2ec1ff"></stop>
  </linearGradient>
  <path d="m226.8 285.131a23.37 23.37 0 1 0 23.37 23.37 23.4 23.4 0 0 0 -23.37-23.37zm0 33.964a10.594 10.594 0 1 1 10.59-10.595 10.607 10.607 0 0 1 -10.59 10.6zm0-137.475a125.77 125.77 0 0 0 -91.882 39.38 6.387 6.387 0 0 1 -9.249-8.812 139.654 139.654 0 0 1 202.254 0 6.387 6.387 0 0 1 -9.249 8.812 125.77 125.77 0 0 0 -91.874-39.38zm74.125 61.389a6.388 6.388 0 1 1 -9.571 8.462 86.14 86.14 0 0 0 -129.108 0 6.388 6.388 0 1 1 -9.571-8.462 98.914 98.914 0 0 1 148.25 0zm-27 31.386a6.388 6.388 0 1 1 -10.344 7.5 45.4 45.4 0 0 0 -73.56 0 6.388 6.388 0 1 1 -10.344-7.5 58.176 58.176 0 0 1 94.248 0zm149.389 73.73h-.872a34.76 34.76 0 0 0 -69.484-1.3c-.28.434-.556.869-.84 1.3h-.065a17.056 17.056 0 0 0 -17.036 17.036v65.527a17.056 17.056 0 0 0 17.036 17.037h71.261a17.056 17.056 0 0 0 17.036-17.037v-65.527a17.056 17.056 0 0 0 -17.041-17.036zm-35.631-21.713a22.011 22.011 0 0 1 21.983 21.713h-43.966a22.011 22.011 0 0 1 21.978-21.713zm39.891 104.276a4.317 4.317 0 0 1 -4.26 4.261h-71.266a4.317 4.317 0 0 1 -4.26-4.261v-65.527a4.317 4.317 0 0 1 4.26-4.26h71.261a4.317 4.317 0 0 1 4.26 4.26zm-39.896-55.908a16.71 16.71 0 0 0 -6.388 32.152v14.45a6.388 6.388 0 1 0 12.776 0v-14.45a16.71 16.71 0 0 0 -6.388-32.152zm0 12.775a3.938 3.938 0 1 1 -3.937 3.938 3.942 3.942 0 0 1 3.937-3.938zm43.249-106.177a279.1 279.1 0 0 0 6.665-60.44v-141.653l-210.792-60.748-210.8 60.748v141.653c0 60.362 20.15 120.517 56.739 169.381a276.28 276.28 0 0 0 152.436 102.719l1.621.425 1.621-.425a277.348 277.348 0 0 0 82.059-36.458 108.291 108.291 0 1 0 120.451-175.2zm-204.127 198.871c-116.688-31.394-198.024-137.782-198.024-259.311v-132.038l198.024-57.067 198.016 57.067v132.038a266.226 266.226 0 0 1 -5.993 55.992 107.546 107.546 0 0 0 -22.145-4.194 230.447 230.447 0 0 0 4.585-45.563v-117.331l-174.463-50.279-174.471 50.279v117.331a235.13 235.13 0 0 0 46.881 139.958 228.3 228.3 0 0 0 125.965 84.881l1.621.426 1.622-.426a229.661 229.661 0 0 0 60.982-25.821 108.451 108.451 0 0 0 12.59 20.667 264.514 264.514 0 0 1 -75.19 33.391zm57.851-66.127a216.735 216.735 0 0 1 -57.851 25.1c-95.295-25.782-161.7-112.736-161.7-212.049v-107.717l161.7-46.598 161.692 46.6v107.715a217.778 217.778 0 0 1 -4.8 45.267 108.319 108.319 0 0 0 -99.041 141.682zm103.031 62.1a95.546 95.546 0 1 1 95.546-95.546 95.653 95.653 0 0 1 -95.55 95.55z" fill="url(#linear-gradient)"></path>
</svg>
