<?xml version="1.0" encoding="UTF-8"?>
<svg xmlns="http://www.w3.org/2000/svg" xmlns:xlink="http://www.w3.org/1999/xlink" id="Layer_1" height="512" viewBox="0 0 512 512" width="512" data-name="Layer 1">
  <linearGradient id="linear-gradient" gradientUnits="userSpaceOnUse" x1="111.694" x2="365.725" y1="423.882" y2="12.571">
    <stop offset=".073" stop-color="#1976d2"></stop>
    <stop offset="1" stop-color="#689ff2"></stop>
  </linearGradient>
  <path d="m465.936 74.742-208.156-59.989a6.431 6.431 0 0 0 -3.56 0l-208.156 59.989a6.428 6.428 0 0 0 -4.648 6.176v139.355c0 61.453 20.514 122.694 57.763 172.44a281.261 281.261 0 0 0 155.189 104.574 6.413 6.413 0 0 0 3.263 0 281.261 281.261 0 0 0 155.189-104.574c37.25-49.746 57.764-110.987 57.764-172.44v-139.355a6.428 6.428 0 0 0 -4.648-6.176zm-8.207 145.531c0 123.792-82.872 232.167-201.729 264.147-118.857-31.98-201.729-140.355-201.729-264.147v-134.518l201.729-58.136 201.729 58.136zm-203.509-167.954-172.036 49.581a6.428 6.428 0 0 0 -4.647 6.177v112.17c0 7.51.365 15.091 1.046 22.586l-8.81 10.974a16.089 16.089 0 0 0 2.471 22.578l14.764 11.852a252.089 252.089 0 0 0 15.947 41.736 6.427 6.427 0 1 0 11.551-5.64 239.413 239.413 0 0 1 -12.306-30.333 16.084 16.084 0 0 0 4.742-1.4c6.057 4.93 14.713 8.055 26.253 9.47 2.257 1.472 3.945 2.558 5.231 3.386 3.464 2.23 3.464 2.23 4.424 3.238.711.748 1.842 1.934 3.916 3.927l-3.819 6.614a18 18 0 0 0 6.576 24.539l1.248.721a17.82 17.82 0 0 0 9.2 2.4 18.381 18.381 0 0 0 .431 2.088 17.84 17.84 0 0 0 8.357 10.911l1.249.721a17.806 17.806 0 0 0 12.379 2.07 17.89 17.89 0 0 0 7.989 9.69l1.248.72c4.216 2.435 9.735 2.657 15.141.61q.581-.219 1.145-.467a17.809 17.809 0 0 0 6.639 6.694l1.249.72a17.8 17.8 0 0 0 8.929 2.4 18.085 18.085 0 0 0 9.285-2.568l9.3 6.791c8.073 5.9 15.257 8.855 21.46 8.855a17.1 17.1 0 0 0 7.449-1.642c4.517-2.155 7.94-6.471 9.857-12.149a23.3 23.3 0 0 0 6.761 1.051 20.311 20.311 0 0 0 9.3-2.211c5.917-3.026 9.94-8.677 11.4-15.674.156 0 .31.016.467.016a25.8 25.8 0 0 0 13.537-3.77 21.807 21.807 0 0 0 10.4-16.674c.32.013.639.038.961.038a23.651 23.651 0 0 0 3.616-.281 22.966 22.966 0 0 0 19.2-26.282 23.375 23.375 0 0 0 -1.224-4.643 40.8 40.8 0 0 0 7.29-3.37c4.691-2.8 8.791-6.722 12.738-10.627l24.881-9.009a15.91 15.91 0 0 0 8.189 3.767c-23.911 71.93-81.782 129.501-153.594 152.106a236.33 236.33 0 0 1 -130.393-102.231 6.428 6.428 0 0 0 -10.957 6.723 249.122 249.122 0 0 0 139.473 108.385 6.428 6.428 0 0 0 3.753 0 248.463 248.463 0 0 0 106.217-65.36 253.069 253.069 0 0 0 60.646-105.143l15.017-12.05a16.079 16.079 0 0 0 2.47-22.579l-8.869-11.047c.721-7.706 1.106-15.5 1.106-23.222v-68.592a6.428 6.428 0 1 0 -12.855 0v68.587c0 2.784-.069 5.58-.168 8.376l-52.73-65.684a16.091 16.091 0 0 0 -22.579-2.47l-17.753 14.252a16.079 16.079 0 0 0 -4.113 20.07c-18.042 6.35-29.5 8.835-56.224 5.04-8.537-1.211-20.91 2.1-38.586 10.368-9.908.5-18.059-2.863-32.445-8.826-3.383-1.4-7.047-2.92-11.11-4.545l.192-.238a16.088 16.088 0 0 0 -2.47-22.579l-17.754-14.252a16.078 16.078 0 0 0 -22.578 2.47l-52.756 65.717c-.084-2.571-.142-5.14-.142-7.7v-107.336l165.608-47.726 165.608 47.726v15.164a6.428 6.428 0 1 0 12.855 0v-20a6.428 6.428 0 0 0 -4.647-6.177l-172.036-49.578a6.431 6.431 0 0 0 -3.56 0zm-89.06 277.881a6.482 6.482 0 0 0 -.984 1.3 5.14 5.14 0 0 1 -6.978 1.869l-1.248-.72a5.141 5.141 0 0 1 -1.87-6.978l11.969-20.729a5.065 5.065 0 0 1 3.1-2.367 5.2 5.2 0 0 1 1.35-.179 5.034 5.034 0 0 1 2.523.676l1.248.721a5.114 5.114 0 0 1 1.869 6.978 6.434 6.434 0 0 0 -.743 1.976 18.293 18.293 0 0 0 -1.253 1.889zm19.817 15.6a6.444 6.444 0 0 0 -1.569 1.821 5.114 5.114 0 0 1 -6.978 1.87l-1.248-.721a5.141 5.141 0 0 1 -1.869-6.977l11.969-20.73a5.066 5.066 0 0 1 3.1-2.367 5.256 5.256 0 0 1 1.35-.179 5.038 5.038 0 0 1 2.523.676l1.248.722a5.112 5.112 0 0 1 1.87 6.977 6.421 6.421 0 0 0 -.793 2.268zm32.017-6.428a6.431 6.431 0 0 0 -.626 1.485l-8.4 14.545a18.034 18.034 0 0 0 -1.469 3.245 9.935 9.935 0 0 1 -4.293 3.045c-1.936.733-3.485.669-4.161.279l-1.248-.72a5.116 5.116 0 0 1 -1.87-6.978l11.969-20.73a5.067 5.067 0 0 1 3.1-2.366 5.213 5.213 0 0 1 1.35-.179 5.022 5.022 0 0 1 2.522.676l1.249.721a5.143 5.143 0 0 1 1.87 6.977zm12.206 28.281a5.142 5.142 0 0 1 -6.978 1.869l-1.249-.721a5.07 5.07 0 0 1 -2.366-3.1 5.126 5.126 0 0 1 -.026-2.585c.015-.052.029-.1.043-.156a5.053 5.053 0 0 1 .48-1.131l11.968-20.73a5.115 5.115 0 0 1 6.978-1.87l1.249.721a5.116 5.116 0 0 1 1.87 6.978zm107.226-182.907 17.753-14.252a3.234 3.234 0 0 1 4.506.493l62.445 77.786a6.449 6.449 0 0 0 1.264 1.574l9.807 12.217a3.248 3.248 0 0 1 -.493 4.506l-17.753 14.253a3.233 3.233 0 0 1 -4.506-.494l-73.516-91.577a3.248 3.248 0 0 1 .493-4.506zm-70.192 27.813c31.6 4.487 45.093.579 66.26-7.056l60.134 74.908-21.827 7.9 2.191 6.048-4.533-4.564c-3.875 3.846-7.535 7.478-11.273 9.707a36.915 36.915 0 0 1 -9.177 3.6c-4.285-3.161-9.346-7.256-14.7-11.593-25.264-20.46-59.863-48.48-88.075-40.714-7.873 2.168-15.068 6.561-20.849 10.091-1.128.688-2.2 1.342-3.207 1.936-5.776 3.4-8.25 4.028-11.039 4.033h-.033c-3.508 0-6.9-1.086-8.252-2.646-1.326-1.53-1.751-4.832-1.3-6.837.194-.868.495-1.266 2.681-3.55.661-.691 1.392-1.456 2.2-2.343 4.219-4.639 10.079-12.162 13.2-16.233l.626-.818c3.5-4.578 6.025-7.885 9.38-9.558 22.759-11.355 33.007-12.965 37.593-12.311zm-74.146.69c8.342 3.458 14.978 6.2 21.3 7.914-1.493 1.732-2.908 3.574-4.347 5.458l-.617.807c-3 3.91-8.6 11.111-12.5 15.4-.724.8-1.381 1.483-1.975 2.1-2.54 2.653-4.939 5.16-5.94 9.634-1.176 5.261-.352 12.887 4.137 18.064 3.847 4.436 10.558 7.08 17.962 7.08h.06c6.41-.013 11.463-2.234 17.538-5.812 1.062-.626 2.192-1.316 3.381-2.041 5.094-3.11 11.434-6.981 17.563-8.668 21.842-6.014 53.475 19.6 76.573 38.309 5.707 4.622 11.1 8.987 15.75 12.386a10.177 10.177 0 0 1 -12.006 16.437l-27.979-20.436a6.428 6.428 0 0 0 -7.583 10.381l27.737 20.26c.507 4.715-.964 8.184-4.392 10.315-3.876 2.409-9.648 2.457-12.866.106l-23.93-17.478a6.428 6.428 0 1 0 -7.582 10.381l23.93 17.479c.267.2.551.367.828.548-.514 3.675-2.241 6.531-4.847 7.864-3.1 1.587-7.17.827-11.154-2.082l-16.357-11.947a6.428 6.428 0 0 0 -7.583 10.381l13.325 9.732c-.616 3.159-1.891 6.143-3.829 7.068-2.875 1.372-8.778-.869-15.792-5.991l-8.57-6.26 9.982-17.29a17.984 17.984 0 0 0 -6.574-24.538l-1.249-.722a17.958 17.958 0 0 0 -16.613-.7 17.818 17.818 0 0 0 -6.312-6.137l-1.249-.721a17.8 17.8 0 0 0 -12.385-2.069 17.805 17.805 0 0 0 -7.983-9.691l-1.249-.721a17.819 17.819 0 0 0 -9.193-2.4 17.94 17.94 0 0 0 -8.791-13l-1.249-.721a18 18 0 0 0 -24.538 6.575l-1.508 2.614c-.525-.533-.923-.95-1.247-1.29-2.019-2.121-2.56-2.47-6.775-5.183-1.5-.965-3.551-2.286-6.428-4.168a6.418 6.418 0 0 0 -2.833-1.012c-8.814-.945-15.457-2.931-19.839-5.921l61.192-76.225c5.48 2.151 10.278 4.138 14.606 5.931zm-38.774-42.972a3.22 3.22 0 0 1 2.516-1.182 3.173 3.173 0 0 1 1.991.688l17.753 14.253a3.234 3.234 0 0 1 .492 4.507l-5.683 7.08-.054.067-67.778 84.43a3.233 3.233 0 0 1 -4.506.492l-17.754-14.252a3.237 3.237 0 0 1 -.493-4.506l9.743-12.137a6.454 6.454 0 0 0 1.265-1.575z" fill="url(#linear-gradient)"></path>
</svg>
