<?xml version="1.0" encoding="UTF-8"?>
<svg xmlns="http://www.w3.org/2000/svg" xmlns:xlink="http://www.w3.org/1999/xlink" id="Layer_1" height="512" viewBox="0 0 512 512" width="512" data-name="Layer 1">
  <linearGradient id="linear-gradient" gradientUnits="userSpaceOnUse" x1="135.621" x2="383.207" y1="462.971" y2="34.14">
    <stop offset="0" stop-color="#0036d0"></stop>
    <stop offset="1" stop-color="#2ec1ff"></stop>
  </linearGradient>
  <path d="m256 172.5a43.693 43.693 0 1 0 -43.693-43.693 43.743 43.743 0 0 0 43.693 43.693zm0-74.61a30.917 30.917 0 1 1 -30.917 30.917 30.952 30.952 0 0 1 30.917-30.913zm188.9 55.734h-75.4a51.289 51.289 0 0 0 -49.325 37.785 50.79 50.79 0 0 0 -26.475-7.409h-75.4a50.773 50.773 0 0 0 -25.958 7.11 51.179 51.179 0 0 0 -49.842-39.889h-75.4a51.159 51.159 0 0 0 -51.1 51.1v79.6a23.937 23.937 0 0 0 35.112 21.179v93.747a30.027 30.027 0 0 0 53.687 18.5 30.027 30.027 0 0 0 53.687-18.5v-93.747a23.788 23.788 0 0 0 8.716 2.633v8.967a23.937 23.937 0 0 0 35.111 21.176v93.747a30.027 30.027 0 0 0 53.687 18.502 30.027 30.027 0 0 0 53.687-18.5v-93.746a23.937 23.937 0 0 0 35.113-21.179v-6.567a23.761 23.761 0 0 0 8.717-2.633v93.748a30.027 30.027 0 0 0 53.687 18.5 30.027 30.027 0 0 0 53.686-18.5v-93.748a23.937 23.937 0 0 0 35.11-21.172v-79.6a51.157 51.157 0 0 0 -51.1-51.1zm-286.414 128.297v-56.165a6.388 6.388 0 0 0 -12.776 0v171.088a17.262 17.262 0 1 1 -34.523 0v-71.531a6.388 6.388 0 1 0 -12.776 0v71.531a17.262 17.262 0 1 1 -34.523 0v-171.088a6.388 6.388 0 0 0 -12.776 0v56.165a11.168 11.168 0 1 1 -22.335 0v-79.6a38.367 38.367 0 0 1 38.323-38.321h75.4a38.371 38.371 0 0 1 38.278 36.47 50.9 50.9 0 0 0 -13.578 34.63v57.706a11.181 11.181 0 0 1 -8.714-10.885zm173.536 32.779a11.168 11.168 0 1 1 -22.335 0v-56.162a6.388 6.388 0 0 0 -12.776 0v171.088a17.262 17.262 0 1 1 -34.523 0v-71.526a6.388 6.388 0 1 0 -12.776 0v71.531a17.262 17.262 0 1 1 -34.523 0v-171.093a6.388 6.388 0 0 0 -12.776 0v56.162a11.168 11.168 0 1 1 -22.335 0v-79.6a38.2 38.2 0 0 1 11.229-27.078 6.35 6.35 0 0 0 .755-.721 38.175 38.175 0 0 1 26.34-10.525h75.4a38.174 38.174 0 0 1 26.352 10.537 6.467 6.467 0 0 0 .743.709 38.2 38.2 0 0 1 11.225 27.078zm151.2-30.375a11.168 11.168 0 1 1 -22.335 0v-56.162a6.388 6.388 0 0 0 -12.775 0v171.088a17.262 17.262 0 0 1 -34.524 0v-71.531a6.388 6.388 0 1 0 -12.775 0v71.531a17.262 17.262 0 0 1 -34.524 0v-171.088a6.388 6.388 0 0 0 -12.775 0v56.165a11.181 11.181 0 0 1 -8.717 10.888v-60.116a50.9 50.9 0 0 0 -13.39-34.445 38.688 38.688 0 0 1 38.093-34.255h75.4a38.367 38.367 0 0 1 38.324 38.324zm-76.022-142.197a43.693 43.693 0 1 0 -43.693-43.692 43.742 43.742 0 0 0 43.693 43.692zm0-74.609a30.917 30.917 0 1 1 -30.917 30.917 30.952 30.952 0 0 1 30.917-30.917zm-302.4 72.2a43.693 43.693 0 1 0 -43.693-43.69 43.742 43.742 0 0 0 43.693 43.693zm0-74.61a30.917 30.917 0 1 1 -30.918 30.92 30.952 30.952 0 0 1 30.918-30.917z" fill="url(#linear-gradient)"></path>
</svg>
