<?xml version="1.0" encoding="UTF-8"?>
<svg xmlns="http://www.w3.org/2000/svg" xmlns:xlink="http://www.w3.org/1999/xlink" id="Layer_1" height="512" viewBox="0 0 512 512" width="512" data-name="Layer 1">
  <linearGradient id="linear-gradient" gradientUnits="userSpaceOnUse" x1="17.919" x2="494.081" y1="256" y2="256">
    <stop offset="0" stop-color="#0036d0"></stop>
    <stop offset="1" stop-color="#2ec1ff"></stop>
  </linearGradient>
  <path d="m259.42 278c72.164 0 130.874-58.71 130.874-130.874s-58.71-130.877-130.874-130.877-130.874 58.71-130.874 130.874 58.709 130.877 130.874 130.877zm-87.473-51.591a138.432 138.432 0 0 1 26.781-11.049 152.9 152.9 0 0 0 9.4 22.664 102.386 102.386 0 0 0 14.409 21.309 118.428 118.428 0 0 1 -50.59-32.927zm87.473-197.397c19.826 0 37.717 21.367 48.276 53.133a221.041 221.041 0 0 1 -48.276 5.169 221.034 221.034 0 0 1 -48.276-5.169c10.556-31.766 28.449-53.133 48.276-53.133zm0 71.065a232.962 232.962 0 0 0 51.849-5.677 214.064 214.064 0 0 1 6.263 46.461l-116.217-.23a213.983 213.983 0 0 1 6.255-46.231 232.978 232.978 0 0 0 51.85 5.677zm0 165.157c-19.827 0-37.717-21.366-48.276-53.133a228.022 228.022 0 0 1 96.552 0c-10.559 31.767-28.45 53.133-48.276 53.133zm0-71.064a232.979 232.979 0 0 0 -51.85 5.68 214.046 214.046 0 0 1 -6.263-46.46l116.218.229a213.911 213.911 0 0 1 -6.256 46.231 232.963 232.963 0 0 0 -51.849-5.68zm70.88-40.526 47.048.093a117.43 117.43 0 0 1 -22.293 62.62 149.46 149.46 0 0 0 -31.384-13.227 226.362 226.362 0 0 0 6.629-49.486zm.007-12.762a226.551 226.551 0 0 0 -6.636-49.765 149.469 149.469 0 0 0 31.38-13.227 117.443 117.443 0 0 1 22.322 63.085zm-141.757-.28-47.048-.093a117.434 117.434 0 0 1 22.287-62.619 149.469 149.469 0 0 0 31.385 13.227 226.353 226.353 0 0 0 -6.629 49.483zm-.008 12.762a226.559 226.559 0 0 0 6.637 49.766 149.469 149.469 0 0 0 -31.385 13.227 117.432 117.432 0 0 1 -22.322-63.085zm107.758 105.966a102.347 102.347 0 0 0 14.409-21.309 152.794 152.794 0 0 0 9.4-22.664 138.4 138.4 0 0 1 26.781 11.049 118.425 118.425 0 0 1 -50.59 32.924zm50.593-191.489a138.457 138.457 0 0 1 -26.781 11.048 152.781 152.781 0 0 0 -9.4-22.663 102.321 102.321 0 0 0 -14.412-21.309 118.416 118.416 0 0 1 50.593 32.924zm-124.358-32.924a102.359 102.359 0 0 0 -14.409 21.309 152.886 152.886 0 0 0 -9.4 22.663 138.431 138.431 0 0 1 -26.781-11.048 118.419 118.419 0 0 1 50.59-32.924zm-146.386 323.093v-31.12a6.381 6.381 0 0 1 6.381-6.382h170.635v-20.719a6.381 6.381 0 1 1 12.762 0v20.719h172.212a6.381 6.381 0 0 1 6.381 6.382v31.12a6.381 6.381 0 1 1 -12.762 0v-24.739h-165.831v24.739a6.381 6.381 0 1 1 -12.762 0v-24.739h-164.254v24.739a6.381 6.381 0 1 1 -12.762 0zm63.309 16.8h-114.918a6.628 6.628 0 0 0 -6.621 6.621v84.359a6.628 6.628 0 0 0 6.621 6.622h51.078v10.58h-25.981a6.382 6.382 0 0 0 0 12.763h64.724a6.382 6.382 0 0 0 0-12.763h-25.981v-10.58h51.078a6.629 6.629 0 0 0 6.622-6.622v-84.363a6.628 6.628 0 0 0 -6.622-6.621zm-6.141 84.84h-102.636v-72.081h102.636zm180.142-84.84h-114.918a6.629 6.629 0 0 0 -6.622 6.621v84.359a6.629 6.629 0 0 0 6.622 6.622h51.078v10.58h-25.981a6.382 6.382 0 1 0 0 12.763h64.724a6.382 6.382 0 0 0 0-12.763h-25.981v-10.58h51.078a6.629 6.629 0 0 0 6.622-6.622v-84.363a6.629 6.629 0 0 0 -6.622-6.621zm-6.141 84.84h-102.636v-72.081h102.636zm180.142-84.84h-114.918a6.628 6.628 0 0 0 -6.622 6.621v84.359a6.629 6.629 0 0 0 6.622 6.622h51.078v10.58h-25.981a6.382 6.382 0 0 0 0 12.763h64.724a6.382 6.382 0 0 0 0-12.763h-25.981v-10.58h51.078a6.628 6.628 0 0 0 6.621-6.622v-84.363a6.628 6.628 0 0 0 -6.621-6.621zm-6.141 84.84h-102.636v-72.081h102.636z" fill="url(#linear-gradient)"></path>
</svg>
