<?xml version="1.0" encoding="UTF-8"?>
<svg xmlns="http://www.w3.org/2000/svg" xmlns:xlink="http://www.w3.org/1999/xlink" id="Layer_1" height="512" viewBox="0 0 512 512" width="512" data-name="Layer 1">
  <linearGradient id="linear-gradient" gradientUnits="userSpaceOnUse" x1="60.199" x2="451.801" y1="256" y2="256">
    <stop offset=".073" stop-color="#1976d2"></stop>
    <stop offset="1" stop-color="#689ff2"></stop>
  </linearGradient>
  <path d="m288.57 74.857a104.378 104.378 0 1 0 104.377 104.377 104.5 104.5 0 0 0 -104.377-104.377zm0 195.979a91.6 91.6 0 1 1 91.6-91.6 91.705 91.705 0 0 1 -91.6 91.6zm17.164-83.476a18.93 18.93 0 0 0 -10.777-26.012v-36.124a6.388 6.388 0 0 0 -12.775 0v36.124a18.995 18.995 0 1 0 14.518 35.052l12.884 12.882a6.388 6.388 0 0 0 9.033-9.034zm-23.4-8.126a6.239 6.239 0 1 1 6.239 6.239 6.245 6.245 0 0 1 -6.242-6.239zm6.236-127.412a127.413 127.413 0 1 0 127.412 127.412 127.557 127.557 0 0 0 -127.412-127.412zm0 242.05a114.637 114.637 0 1 1 114.636-114.638 114.768 114.768 0 0 1 -114.636 114.638zm-84.223-121.025h10.882v12.775h-10.882zm77.835 79.729h12.775v10.881h-12.775zm90.61-66.954h-10.881v-12.775h10.881zm-77.835-79.728h-12.775v-10.882h12.775zm-156.582 62.323-12.692-1.458.729-6.346a163.241 163.241 0 0 1 254.8-115.568l-.527-3.445a6.388 6.388 0 1 1 12.629-1.928l2.537 16.608.566.46-.417.514.235 1.544a6.388 6.388 0 0 1 -5.35 7.279l-2.35.359-.176.217-.2-.16-16.4 2.5a6.388 6.388 0 0 1 -1.929-12.629l4.337-.663a150.465 150.465 0 0 0 -235.067 106.37zm273.725 97.165 10.153 7.753-3.876 5.076c-2.677 3.5-5.532 6.946-8.486 10.227l-4.275 4.746-9.493-8.548 4.274-4.747c2.725-3.026 5.358-6.2 7.826-9.431zm-83.672 58.973 6.161-1.688 3.375 12.321-6.161 1.688c-4.258 1.167-8.615 2.17-12.951 2.984l-6.278 1.177-2.356-12.556 6.282-1.181c3.994-.746 8.008-1.671 11.931-2.745zm-187.028-113.691 1.327 6.249-12.5 2.655-1.327-6.248c-.916-4.313-1.666-8.72-2.228-13.1l-.813-6.336 12.671-1.626.813 6.335c.522 4.036 1.213 8.098 2.057 12.071zm291.8 10.665 12.1 4.086-2.043 6.052c-1.413 4.187-3.017 8.364-4.768 12.418l-2.533 5.865-11.728-5.066 2.533-5.864c1.613-3.734 3.091-7.583 4.392-11.438zm-291.315 29.6-2.809-5.736 11.474-5.619 2.809 5.737c1.788 3.651 3.748 7.274 5.827 10.767l3.268 5.489-10.977 6.533-3.267-5.489c-2.256-3.79-4.384-7.721-6.324-11.683zm309.915-78.082v6.387c0 4.421-.179 8.886-.532 13.269l-.513 6.367-12.734-1.025.513-6.367c.325-4.043.49-8.163.49-12.244v-6.387zm-73.77 127.538 7.157 10.582-5.291 3.579c-3.651 2.469-7.452 4.82-11.3 6.988l-5.565 3.137-6.273-11.129 5.564-3.137c3.545-2 7.049-4.166 10.414-6.441zm-196.4-15.314c2.863 2.892 5.879 5.7 8.966 8.353l4.846 4.162-8.324 9.692-4.846-4.162c-3.346-2.874-6.617-5.92-9.721-9.056l-4.494-4.54 9.079-8.988zm39.483 28.69c3.641 1.829 7.4 3.527 11.164 5.048l5.923 2.391-4.782 11.846-5.923-2.391c-4.088-1.65-8.165-3.493-12.117-5.478l-5.708-2.867 5.734-11.417zm46.593 14.5c4.022.557 8.124.957 12.191 1.188l6.377.362-.724 12.755-6.377-.363c-4.411-.25-8.859-.683-13.221-1.288l-6.328-.877 1.755-12.654zm125.036 18.469-66.508 34.459a25.13 25.13 0 0 0 -13.174-10.243l-93.838-31.427a45.436 45.436 0 0 0 -30.351.159l-61.541 21.322-10.573-16.709a6.388 6.388 0 0 0 -8.813-1.982l-44.772 28.33a6.388 6.388 0 0 0 -1.982 8.814l71.863 113.568a6.384 6.384 0 0 0 8.813 1.982l44.772-28.329a6.389 6.389 0 0 0 1.982-8.814l-2.981-4.711 3.032-1.768 82.987 11.987a49.709 49.709 0 0 0 7.1.519 45.617 45.617 0 0 0 25.049-7.5l113.62-65.587a25.317 25.317 0 0 0 9.537-34.429c-6.721-11.871-21.752-16.108-34.22-9.645zm-252.309 134.07-65.033-102.778 33.976-21.5 65.033 102.778zm276.559-108.653a12.424 12.424 0 0 1 -5.905 7.564l-113.8 65.7c-.094.054-.186.11-.277.169a32.935 32.935 0 0 1 -23.525 5.149l-85.195-12.308a6.38 6.38 0 0 0 -4.131.805l-5.359 3.124-44.457-70.258 58.709-20.347a32.664 32.664 0 0 1 22.111-.115l93.838 31.426a12.545 12.545 0 0 1 8 15.391c-3.08 5.828-9.115 10.572-15.934 8.287l-68.547-22.956a6.388 6.388 0 0 0 -4.057 12.114l68.547 22.956a23.611 23.611 0 0 0 7.517 1.236c9.688 0 18.963-6.038 24.114-16.339a6.378 6.378 0 0 0 .344-.829 25.119 25.119 0 0 0 1.262-9.425l68.367-35.423c6.338-3.283 13.9-1.263 17.225 4.6a12.392 12.392 0 0 1 1.153 9.479z" fill="url(#linear-gradient)"></path>
</svg>
