<?xml version="1.0" encoding="UTF-8"?>
<svg xmlns="http://www.w3.org/2000/svg" xmlns:xlink="http://www.w3.org/1999/xlink" id="Layer_1" height="512" viewBox="0 0 512 512" width="512" data-name="Layer 1">
  <linearGradient id="linear-gradient" gradientUnits="userSpaceOnUse" x1="114.884" x2="368.694" y1="501.187" y2="61.576">
    <stop offset="0" stop-color="#0036d0"></stop>
    <stop offset="1" stop-color="#2ec1ff"></stop>
  </linearGradient>
  <path d="m186.169 343.4a6.388 6.388 0 0 1 6.388-6.388h83.932a6.388 6.388 0 0 1 0 12.776h-83.932a6.388 6.388 0 0 1 -6.388-6.388zm6.388 37.236h70.505a6.388 6.388 0 1 0 0-12.775h-70.505a6.388 6.388 0 1 0 0 12.775zm-21.624-51.76a6.387 6.387 0 0 1 .392 9.025l-5.706 6.226a35.907 35.907 0 1 1 -8.229-9.93l4.518-4.929a6.388 6.388 0 0 1 9.025-.394zm-14.69 25.479-15.766 17.2a6.387 6.387 0 0 1 -8.12 1.085l-13.321-8.414a6.388 6.388 0 0 1 6.823-10.8l8.807 5.563 14.082-15.363a23.042 23.042 0 1 0 7.5 10.731zm36.314-101.116h97a6.388 6.388 0 1 0 0-12.776h-97a6.388 6.388 0 1 0 0 12.776zm0 30.848h129.706a6.388 6.388 0 1 0 0-12.775h-129.706a6.388 6.388 0 1 0 0 12.775zm-21.624-51.76a6.387 6.387 0 0 1 .392 9.025l-5.706 6.226a35.907 35.907 0 1 1 -8.229-9.93l4.518-4.929a6.387 6.387 0 0 1 9.025-.394zm-14.69 25.473-15.766 17.2a6.387 6.387 0 0 1 -8.12 1.085l-13.321-8.413a6.388 6.388 0 0 1 6.823-10.8l8.807 5.563 14.082-15.363a23.042 23.042 0 1 0 7.5 10.731zm36.314-101.116h129.706a6.388 6.388 0 1 0 0-12.776h-129.706a6.388 6.388 0 0 0 0 12.776zm0 30.848h129.706a6.388 6.388 0 1 0 0-12.775h-129.706a6.388 6.388 0 1 0 0 12.775zm-58.191-54.842a35.669 35.669 0 0 1 23.023 8.4l4.519-4.929a6.388 6.388 0 0 1 9.417 8.633l-5.706 6.226a35.825 35.825 0 1 1 -31.253-18.333zm-17.319 29.62a6.386 6.386 0 0 1 8.812-1.99l8.807 5.563 14.082-15.363a23.042 23.042 0 1 0 7.5 10.731l-15.766 17.2a6.387 6.387 0 0 1 -8.12 1.085l-13.321-8.414a6.386 6.386 0 0 1 -1.994-8.808zm352.275 239.628a94.018 94.018 0 0 1 -150.292 75.362h-234.259a42.14 42.14 0 0 1 -42.093-42.092v-337.517a42.141 42.141 0 0 1 42.093-42.091h60.134v-6.527a6.387 6.387 0 0 1 6.388-6.387h31.874a33.448 33.448 0 0 1 65.515 0h31.874a6.387 6.387 0 0 1 6.388 6.387v6.527h60.135a42.14 42.14 0 0 1 42.092 42.092v42.185l26.629-25.134a14.646 14.646 0 0 1 20.68.6l13.02 13.79a14.651 14.651 0 0 1 -.6 20.679l-59.728 56.38v102.714a94.208 94.208 0 0 1 80.15 93.032zm-92.922-183.687-12.218 11.529v78.751a94.677 94.677 0 0 1 11.077-.655c.38 0 .758.009 1.137.014zm-231.495-118.416v-6.471h-60.133a4.385 4.385 0 0 0 -4.329 4.327v337.515a4.386 4.386 0 0 0 4.329 4.329h204.275a94.048 94.048 0 0 1 62.36-128.592v-71.522l-33.6 7.971a6.387 6.387 0 0 1 -7.594-8.045l5.206-17.406c.026-.088.054-.176.085-.263l5.806-16.744c.016-.046.032-.092.049-.138a6.357 6.357 0 0 1 1.7-2.516l28.348-26.758v-77.831a4.385 4.385 0 0 0 -4.329-4.327h-60.134v6.471a6.388 6.388 0 0 1 -6.388 6.388h-129.263a6.388 6.388 0 0 1 -6.388-6.388zm182.717 125.9-2 6.673 13.822-3.28-9.509-10.075zm8.763-18.465 15.564 16.489 88.181-83.237a1.877 1.877 0 0 0 .076-2.62l-13.02-13.794a1.879 1.879 0 0 0 -2.62-.075zm-49.441-138.9v12.218h60.134a17.122 17.122 0 0 1 17.1 17.1v65.772l12.222-11.525v-54.244a29.349 29.349 0 0 0 -29.317-29.316zm-129.263 25.077h116.487v-37.986h-31.182a6.387 6.387 0 0 1 -6.387-6.3 20.676 20.676 0 0 0 -41.348 0 6.387 6.387 0 0 1 -6.387 6.3h-31.183zm-72.91 371.076h220.335a94.626 94.626 0 0 1 -9.25-12.212h-211.084a17.124 17.124 0 0 1 -17.105-17.1v-337.52a17.123 17.123 0 0 1 17.105-17.1h60.133v-12.216h-60.134a29.349 29.349 0 0 0 -29.317 29.316v337.516a29.349 29.349 0 0 0 29.317 29.316zm371.775-62.585a81.287 81.287 0 1 0 -81.287 81.286 81.379 81.379 0 0 0 81.287-81.286zm-46.68-30.97-45.257 49.371-25.254-15.952a6.388 6.388 0 0 0 -6.823 10.8l29.768 18.8a6.387 6.387 0 0 0 8.12-1.085l48.863-53.302a6.387 6.387 0 1 0 -9.417-8.632z" fill="url(#linear-gradient)"></path>
</svg>
