<?xml version="1.0" encoding="UTF-8"?>
<svg xmlns="http://www.w3.org/2000/svg" xmlns:xlink="http://www.w3.org/1999/xlink" id="Layer_1" data-name="Layer 1" viewBox="0 0 512 512" width="512" height="512">
  <defs>
    <style>.cls-1{fill:url(#linear-gradient);}</style>
    <linearGradient id="linear-gradient" x1="148.083" y1="562.786" x2="429.944" y2="74.588" gradientUnits="userSpaceOnUse">
      <stop offset="0" stop-color="#0036d0"></stop>
      <stop offset="1" stop-color="#2ec1ff"></stop>
    </linearGradient>
  </defs>
  <path class="cls-1" d="M208.658,315a47.453,47.453,0,1,0,47.453-47.452A47.506,47.506,0,0,0,208.658,315Zm82.13,0a34.677,34.677,0,1,1-34.677-34.677A34.716,34.716,0,0,1,290.788,315ZM113.106,362.45A47.453,47.453,0,1,0,65.653,315,47.506,47.506,0,0,0,113.106,362.45Zm0-82.13A34.678,34.678,0,1,1,78.429,315,34.716,34.716,0,0,1,113.106,280.32ZM440.392,376.4H357.4a54.879,54.879,0,0,0-29.883,8.763,55.259,55.259,0,0,0-29.905-8.763h-83A55.266,55.266,0,0,0,184.6,385.23,54.862,54.862,0,0,0,154.6,376.4H71.608A55.67,55.67,0,0,0,16,432v50.836a6.388,6.388,0,0,0,6.388,6.388H489.611A6.388,6.388,0,0,0,496,482.839V432A55.67,55.67,0,0,0,440.392,376.4Zm0,12.776A42.879,42.879,0,0,1,483.223,432v44.448H457.349V457.8a6.388,6.388,0,1,0-12.775,0v18.65H353.216V432A55.4,55.4,0,0,0,338,393.848a42.222,42.222,0,0,1,19.393-4.676Zm-142.783,0a42.6,42.6,0,0,1,25.57,8.492,6.387,6.387,0,0,0,.814.637A42.767,42.767,0,0,1,340.44,432v44.448H314.565V457.8a6.388,6.388,0,1,0-12.775,0v18.65H210.432V457.8a6.388,6.388,0,1,0-12.776,0v18.65H171.782V432a42.765,42.765,0,0,1,16.343-33.621,6.4,6.4,0,0,0,.813-.639,42.606,42.606,0,0,1,25.675-8.571Zm-226,0h83a42.213,42.213,0,0,1,19.543,4.752A55.394,55.394,0,0,0,159.006,432v24.155a6.361,6.361,0,0,0-.221,1.643v18.65H67.427V457.8a6.388,6.388,0,0,0-12.776,0v18.65H28.777V432A42.88,42.88,0,0,1,71.608,389.172ZM351.442,315A47.453,47.453,0,1,0,398.9,267.545,47.506,47.506,0,0,0,351.442,315Zm82.13,0A34.677,34.677,0,1,1,398.9,280.32,34.716,34.716,0,0,1,433.572,315ZM327.5,117.679A47.453,47.453,0,1,0,280.05,70.226,47.507,47.507,0,0,0,327.5,117.679Zm0-82.13a34.677,34.677,0,1,1-34.678,34.677A34.716,34.716,0,0,1,327.5,35.549Zm-143,82.13a47.453,47.453,0,1,0-47.454-47.453A47.506,47.506,0,0,0,184.5,117.679Zm0-82.13A34.677,34.677,0,1,1,149.82,70.226,34.716,34.716,0,0,1,184.5,35.549ZM93.781,244.455H418.219a6.388,6.388,0,0,0,6.388-6.388V187.232A55.67,55.67,0,0,0,369,131.625H286.005a54.864,54.864,0,0,0-29.994,8.834A55.257,55.257,0,0,0,226,131.625H143a55.67,55.67,0,0,0-55.607,55.607v50.835A6.388,6.388,0,0,0,93.781,244.455ZM369,144.4a42.881,42.881,0,0,1,42.832,42.832V231.68H385.957V213.03a6.388,6.388,0,1,0-12.776,0v18.65H281.824V213.03a6.384,6.384,0,0,0-.222-1.646V187.232a55.39,55.39,0,0,0-15.139-38.079,42.2,42.2,0,0,1,19.542-4.753Zm-226,0h83a42.607,42.607,0,0,1,25.677,8.573,6.37,6.37,0,0,0,.81.637,42.765,42.765,0,0,1,16.344,33.622V231.68H242.952V213.03a6.388,6.388,0,0,0-12.776,0v18.65H138.819V213.03a6.388,6.388,0,1,0-12.776,0v18.65H100.168V187.232A42.88,42.88,0,0,1,143,144.4Z"></path>
</svg>
