<?xml version="1.0" encoding="UTF-8"?>
<svg xmlns="http://www.w3.org/2000/svg" xmlns:xlink="http://www.w3.org/1999/xlink" id="Layer_1" viewBox="0 0 512 512" data-name="Layer 1">
  <linearGradient id="linear-gradient" gradientUnits="userSpaceOnUse" x1="105.554" x2="387.817" y1="535.438" y2="46.544">
    <stop offset="0" stop-color="#0036d0"></stop>
    <stop offset="1" stop-color="#2ec1ff"></stop>
  </linearGradient>
  <path d="m367.4 313.377a6.389 6.389 0 0 1 0 12.777h-129.321a6.389 6.389 0 0 1 0-12.776zm-129.327 30.738a6.388 6.388 0 0 0 0 12.775h129.243a6.389 6.389 0 1 0 .084-12.777zm0-115.7a6.388 6.388 0 0 0 0 12.775h101.248a6.388 6.388 0 0 0 0-12.775zm87.687 43.515a6.389 6.389 0 0 0 0-12.776h-87.687a6.388 6.388 0 0 0 0 12.775zm-108.824-42.583-5.676 6.191a35.812 35.812 0 1 1 -8.23-9.932l4.487-4.895c5.875-6.413 14.737 2.832 9.419 8.636zm-30.736 33.532a6.39 6.39 0 0 1 -8.12 1.08l-13.28-8.387a6.387 6.387 0 1 1 6.822-10.8l8.76 5.534 14-15.276a22.947 22.947 0 1 0 7.491 10.735zm181.116-119.419h-129.237a6.389 6.389 0 0 0 0 12.776h129.237a6.455 6.455 0 0 0 6.472-6.388c0-6.207-6.089-6.005-6.472-6.388zm-129.237 30.74a6.388 6.388 0 0 0 0 12.775h129.237a6.388 6.388 0 1 0 .084-12.775zm-21.143-29.813-5.676 6.19a35.815 35.815 0 1 1 -8.23-9.931l4.487-4.9c5.71-6.233 15.108 2.428 9.419 8.636zm-15.056 16.421-15.68 17.109a6.39 6.39 0 0 1 -8.12 1.08l-13.272-8.384a6.387 6.387 0 1 1 6.821-10.8l8.76 5.533 14-15.275a22.944 22.944 0 1 0 7.491 10.734zm-144.83 297.251a6.388 6.388 0 0 0 0 12.775h34.009a6.389 6.389 0 0 0 0-12.776zm0-21.774a6.388 6.388 0 0 0 0 12.775h34.009a6.389 6.389 0 0 0 0-12.776zm376.95-208.178 48.7-68.589a16.386 16.386 0 0 0 -3.867-22.805l-18.706-13.28a16.373 16.373 0 0 0 -22.8 3.868l-3.321 4.677v-34.55a42.009 42.009 0 0 0 -41.964-41.964h-59.888v-6.478a6.388 6.388 0 0 0 -6.388-6.388h-31.743a33.351 33.351 0 0 0 -65.32 0h-31.741a6.389 6.389 0 0 0 -6.389 6.388v6.478h-59.9a42.01 42.01 0 0 0 -41.963 41.964v206.248h-47.462a14.976 14.976 0 0 0 -14.959 14.958v162.408a14.974 14.974 0 0 0 14.957 14.958h162.41a14.972 14.972 0 0 0 14.958-14.955v-5.345h173.429a42.009 42.009 0 0 0 41.957-41.969zm-101.857-159.868h59.9a29.221 29.221 0 0 1 29.19 29.189v52.537l-12.123 17.076v-69.617a17.084 17.084 0 0 0 -17.066-17.06h-59.9v-12.125zm64.186 116.8v-87.611a4.35 4.35 0 0 0 -4.288-4.29h-59.9v6.425a6.389 6.389 0 0 1 -6.388 6.388h-128.8a6.389 6.389 0 0 1 -6.388-6.388v-6.424h-59.89a4.349 4.349 0 0 0 -4.291 4.289v206.248h77.272a14.975 14.975 0 0 1 14.959 14.956v119.389h134.085v-34.239a17.083 17.083 0 0 1 17.066-17.065h26.56v-105.547l-2.944 4.146a6.36 6.36 0 0 1 -2.634 2.209l-39.931 18.3a6.387 6.387 0 0 1 -9.049-5.806c0-6.389 1.458-15.8 2.086-22.476.655-6.918 1.988-14.453 2.947-21.408a6.364 6.364 0 0 1 1.207-3.046l48.318-68.052zm-39.761 93.841 1.473-10.688 17.352 12.32-19.835 9.088 1.01-10.724zm13.2 120.613h19.394l-23.684 28.691v-24.4a4.348 4.348 0 0 1 4.29-4.29zm-225.721-83.041.01 52.337-16.951-15.655a6.388 6.388 0 0 0 -8.67 0l-16.951 15.656v-52.338zm59.3-223.278v-37.8h31.049a6.388 6.388 0 0 0 6.388-6.3 20.577 20.577 0 0 1 41.15 0 6.388 6.388 0 0 0 6.388 6.3h31.047v37.8zm-101.86 210.5h12.123v-206.246a17.083 17.083 0 0 1 17.065-17.059h59.9v-12.13h-59.9a29.221 29.221 0 0 0 -29.188 29.19v206.247zm104.353 14.957v162.41a2.21 2.21 0 0 1 -2.182 2.181h-162.411a2.211 2.211 0 0 1 -2.183-2.18v-162.413a2.211 2.211 0 0 1 2.181-2.181h47.465v66.941a6.387 6.387 0 0 0 10.722 4.692l23.338-21.561 23.33 21.573c4.245 3.933 10.725.57 10.725-4.7v-66.94h46.833a2.209 2.209 0 0 1 2.182 2.181zm215.4-72.532-12.14 17.077v129.93a6.5 6.5 0 0 1 -1.457 4.056l-42.343 51.311a6.393 6.393 0 0 1 -4.927 2.322h-141.76v12.124h173.428a29.221 29.221 0 0 0 29.189-29.19v-187.628zm29.442-112.893c3.2 0 23.832 16.245 22.207 16.245a3.552 3.552 0 0 1 -.594 2.671l-85.688 120.678-24.545-17.426 85.683-120.674a3.629 3.629 0 0 1 2.931-1.492z" fill="url(#linear-gradient)" fill-rule="evenodd"></path>
</svg>
